<svg width="14" height="16" viewBox="0 0 14 16"  xmlns="http://www.w3.org/2000/svg">
<path d="M13.345 6.22249C13.2397 5.12667 12.8525 4.0768 12.2209 3.1751C11.5894 2.2734 10.7351 1.55061 9.74128 1.07711C8.74745 0.603604 7.64794 0.395528 6.54982 0.47314C5.4517 0.550752 4.39238 0.911408 3.47503 1.51999C2.68693 2.04697 2.02532 2.74196 1.53774 3.55503C1.05016 4.3681 0.748704 5.27907 0.655033 6.22249C0.563145 7.15973 0.681038 8.10568 1.00016 8.99169C1.31928 9.87771 1.83163 10.6816 2.50003 11.345L6.47503 15.3275C6.54476 15.3978 6.62771 15.4536 6.7191 15.4917C6.81049 15.5297 6.90852 15.5493 7.00753 15.5493C7.10654 15.5493 7.20457 15.5297 7.29597 15.4917C7.38736 15.4536 7.47031 15.3978 7.54003 15.3275L11.5 11.345C12.1684 10.6816 12.6808 9.87771 12.9999 8.99169C13.319 8.10568 13.4369 7.15973 13.345 6.22249V6.22249ZM10.45 10.2875L7.00003 13.7375L3.55003 10.2875C3.0416 9.77903 2.65213 9.16423 2.40963 8.48731C2.16713 7.81038 2.07762 7.08813 2.14753 6.37249C2.2179 5.64581 2.44886 4.94386 2.82371 4.31737C3.19857 3.69088 3.70795 3.15552 4.31503 2.74999C5.11074 2.22141 6.04476 1.93946 7.00003 1.93946C7.9553 1.93946 8.88932 2.22141 9.68503 2.74999C10.2903 3.15395 10.7985 3.68695 11.1733 4.31069C11.5481 4.93443 11.78 5.63344 11.8525 6.35749C11.9247 7.07556 11.8363 7.80069 11.5938 8.4804C11.3512 9.1601 10.9605 9.77736 10.45 10.2875V10.2875ZM7.00003 3.49999C6.33252 3.49999 5.68 3.69793 5.12498 4.06878C4.56997 4.43963 4.13739 4.96673 3.88194 5.58343C3.62649 6.20013 3.55966 6.87873 3.68988 7.53342C3.82011 8.1881 4.14155 8.78947 4.61355 9.26147C5.08555 9.73347 5.68692 10.0549 6.3416 10.1851C6.99629 10.3154 7.67489 10.2485 8.29159 9.99308C8.90829 9.73764 9.43539 9.30505 9.80624 8.75004C10.1771 8.19502 10.375 7.5425 10.375 6.87499C10.3731 5.98049 10.0168 5.1232 9.38433 4.49069C8.75182 3.85818 7.89453 3.50197 7.00003 3.49999V3.49999ZM7.00003 8.74999C6.62919 8.74999 6.26668 8.64002 5.95834 8.43399C5.65 8.22797 5.40967 7.93513 5.26776 7.59252C5.12584 7.24991 5.08871 6.87291 5.16106 6.50919C5.23341 6.14548 5.41198 5.81139 5.67421 5.54916C5.93643 5.28694 6.27052 5.10836 6.63424 5.03602C6.99795 4.96367 7.37495 5.0008 7.71756 5.14271C8.06018 5.28463 8.35301 5.52495 8.55904 5.83329C8.76507 6.14164 8.87503 6.50415 8.87503 6.87499C8.87503 7.37227 8.67749 7.84918 8.32586 8.20081C7.97423 8.55244 7.49731 8.74999 7.00003 8.74999V8.74999Z" />
</svg>
