<svg width="22" height="21" viewBox="0 0 22 21"  xmlns="http://www.w3.org/2000/svg">
<path d="M7.84615 0H3.11538C1.80902 0 0.75 1.05902 0.75 2.36538V7.09615C0.75 8.40252 1.80902 9.46154 3.11538 9.46154H7.84615C9.15252 9.46154 10.2115 8.40252 10.2115 7.09615V2.36538C10.2115 1.05902 9.15252 0 7.84615 0Z" />
<path d="M18.8842 0H14.1535C12.8471 0 11.7881 1.05902 11.7881 2.36538V7.09615C11.7881 8.40252 12.8471 9.46154 14.1535 9.46154H18.8842C20.1906 9.46154 21.2496 8.40252 21.2496 7.09615V2.36538C21.2496 1.05902 20.1906 0 18.8842 0Z" />
<path d="M7.84615 11.0383H3.11538C1.80902 11.0383 0.75 12.0973 0.75 13.4037V18.1345C0.75 19.4409 1.80902 20.4999 3.11538 20.4999H7.84615C9.15252 20.4999 10.2115 19.4409 10.2115 18.1345V13.4037C10.2115 12.0973 9.15252 11.0383 7.84615 11.0383Z" />
<path d="M20.4612 14.9806H17.3073V11.8268C17.3073 11.6177 17.2242 11.4171 17.0764 11.2693C16.9285 11.1214 16.728 11.0383 16.5189 11.0383C16.3097 11.0383 16.1092 11.1214 15.9613 11.2693C15.8135 11.4171 15.7304 11.6177 15.7304 11.8268V14.9806H12.5765C12.3674 14.9806 12.1669 15.0637 12.019 15.2116C11.8712 15.3594 11.7881 15.56 11.7881 15.7691C11.7881 15.9782 11.8712 16.1788 12.019 16.3266C12.1669 16.4745 12.3674 16.5576 12.5765 16.5576H15.7304V19.7114C15.7304 19.9205 15.8135 20.1211 15.9613 20.2689C16.1092 20.4168 16.3097 20.4999 16.5189 20.4999C16.728 20.4999 16.9285 20.4168 17.0764 20.2689C17.2242 20.1211 17.3073 19.9205 17.3073 19.7114V16.5576H20.4612C20.6703 16.5576 20.8708 16.4745 21.0187 16.3266C21.1666 16.1788 21.2496 15.9782 21.2496 15.7691C21.2496 15.56 21.1666 15.3594 21.0187 15.2116C20.8708 15.0637 20.6703 14.9806 20.4612 14.9806Z" />
</svg>
