<svg width="17" height="19" viewBox="0 0 17 19"  xmlns="http://www.w3.org/2000/svg">
<path d="M13.1397 0.461056C10.0659 -0.110635 6.87391 -0.110635 3.8001 0.461056C2.44054 0.746901 0.7263 2.34764 0.430742 3.60536C-0.101263 6.06363 -0.101263 8.57906 0.430742 11.0373C0.785412 12.2951 2.49965 13.8958 3.8001 14.1816C3.85922 14.1816 3.91833 14.2388 3.91833 14.296V17.8976C3.91833 18.0691 4.15478 18.1835 4.273 18.012L6.04635 16.2397C6.04635 16.2397 7.46502 14.8105 7.70147 14.5818C7.70147 14.5818 7.76059 14.5247 7.8197 14.5247C9.59305 14.5818 11.4255 14.4103 13.1989 14.1245C14.5584 13.8386 16.2727 12.2379 16.5682 10.9802C17.1002 8.5219 17.1002 6.00646 16.5682 3.54819C16.2135 2.34764 14.4993 0.746901 13.1397 0.461056ZM13.1989 11.2088C12.9033 11.7805 12.5486 12.2379 11.9575 12.5237C11.7802 12.5809 11.6028 12.6381 11.4255 12.6952C11.1891 12.6381 11.0117 12.5809 10.8344 12.5237C8.94282 11.7805 7.16947 10.7515 5.75079 9.26509C4.98234 8.40756 4.33211 7.43568 3.8001 6.40664C3.56366 5.89212 3.32721 5.43477 3.14988 4.92024C2.97254 4.46289 3.2681 4.00554 3.56366 3.66252C3.85921 3.31951 4.21389 3.09083 4.62767 2.91933C4.92323 2.74782 5.21879 2.86216 5.45523 3.09083C5.92812 3.66252 6.40102 4.23421 6.75569 4.86307C6.99213 5.26326 6.93302 5.72061 6.51924 6.00646C6.40102 6.06363 6.3419 6.1208 6.22368 6.23513C6.16457 6.2923 6.04634 6.34947 5.98723 6.46381C5.86901 6.63532 5.86901 6.80682 5.92812 6.97833C6.40102 8.29322 7.28769 9.32226 8.64726 9.89395C8.8837 10.0083 9.06104 10.0655 9.3566 10.0655C9.77038 10.0083 9.94771 9.55094 10.2433 9.32226C10.5388 9.09359 10.8935 9.09359 11.2482 9.26509C11.5437 9.4366 11.8393 9.66528 12.194 9.89395C12.4895 10.1226 12.7851 10.2941 13.0806 10.5228C13.258 10.6372 13.3171 10.923 13.1989 11.2088ZM10.7162 6.92116C10.5979 6.92116 10.6571 6.92116 10.7162 6.92116C10.4797 6.92116 10.4206 6.80682 10.3615 6.63532C10.3615 6.52098 10.3615 6.34947 10.3024 6.23513C10.2433 6.00646 10.1251 5.77778 9.8886 5.60627C9.77038 5.5491 9.65215 5.49193 9.53393 5.43477C9.3566 5.3776 9.23838 5.3776 9.06104 5.3776C8.88371 5.32043 8.82459 5.20609 8.82459 5.03458C8.82459 4.92024 9.00193 4.80591 9.12015 4.80591C10.0659 4.86308 10.7753 5.3776 10.8935 6.46381C10.8935 6.52098 10.8935 6.63532 10.8935 6.69249C10.8935 6.80682 10.8344 6.92116 10.7162 6.92116ZM10.125 4.40572C9.82949 4.29138 9.53393 4.17705 9.17926 4.11988C9.06104 4.11988 8.88371 4.06271 8.76548 4.06271C8.58815 4.06271 8.46992 3.94837 8.52904 3.77686C8.52904 3.60536 8.64726 3.49102 8.82459 3.54819C9.41571 3.60536 9.94772 3.71969 10.4797 3.94837C11.5437 4.46289 12.1348 5.32043 12.3122 6.46381C12.3122 6.52098 12.3122 6.57815 12.3122 6.63532C12.3122 6.74966 12.3122 6.86399 12.3122 7.0355C12.3122 7.09267 12.3122 7.14984 12.3122 7.20701C12.2531 7.43568 11.8393 7.49285 11.7802 7.20701C11.7802 7.14984 11.7211 7.0355 11.7211 6.97833C11.7211 6.46381 11.6028 5.94929 11.3664 5.49193C11.0117 4.97741 10.5979 4.6344 10.125 4.40572ZM13.3171 7.83587C13.1397 7.83587 13.0215 7.66436 13.0215 7.49285C13.0215 7.14984 12.9624 6.80682 12.9033 6.46381C12.6669 4.6344 11.1299 3.148 9.29749 2.86216C9.00193 2.80499 8.70637 2.80499 8.46992 2.74782C8.29259 2.74782 8.05614 2.74782 7.99703 2.51914C7.93792 2.34764 8.11525 2.17613 8.29259 2.17613C8.3517 2.17613 8.41081 2.17613 8.41081 2.17613C10.8344 2.2333 8.52904 2.17613 8.41081 2.17613C10.8935 2.2333 12.9624 3.83403 13.3762 6.23513C13.4353 6.63532 13.4944 7.0355 13.4944 7.49285C13.6126 7.66436 13.4944 7.83587 13.3171 7.83587Z" />
</svg>
