<svg width="17" height="17" viewBox="0 0 17 17"  xmlns="http://www.w3.org/2000/svg">
<path d="M14.4889 2.50201C12.8956 0.914313 10.7713 0.0322571 8.52898 0.0322571C3.8673 0.0322571 0.090746 3.7957 0.090746 8.4412C0.090746 9.91129 0.503807 11.3814 1.21191 12.6163L0.0317383 16.9677L4.5164 15.7917C5.75558 16.4385 7.11278 16.7913 8.52898 16.7913C13.1907 16.7913 16.9672 13.0279 16.9672 8.38239C16.9082 6.20665 16.0821 4.08972 14.4889 2.50201ZM12.6006 11.4402C12.4236 11.9106 11.5974 12.381 11.1844 12.4399C10.8303 12.4987 10.3583 12.4987 9.88618 12.381C9.59114 12.2634 9.17808 12.1458 8.70601 11.9106C6.5817 11.0286 5.2245 8.91163 5.10648 8.73521C4.98847 8.61761 4.22135 7.61794 4.22135 6.55947C4.22135 5.50101 4.75243 5.03058 4.92946 4.79536C5.10648 4.56015 5.34252 4.56015 5.51954 4.56015C5.63756 4.56015 5.81458 4.56015 5.9326 4.56015C6.05062 4.56015 6.22765 4.50134 6.40467 4.91297C6.5817 5.3246 6.99476 6.38306 7.05377 6.44187C7.11278 6.55947 7.11278 6.67708 7.05377 6.79469C6.99476 6.9123 6.93575 7.0299 6.81773 7.14751C6.69971 7.26512 6.5817 7.44153 6.52269 7.50033C6.40467 7.61794 6.28665 7.73555 6.40467 7.91196C6.52269 8.14718 6.93575 8.79402 7.58485 9.38205C8.41097 10.0877 9.06006 10.3229 9.2961 10.4405C9.53213 10.5581 9.65015 10.4993 9.76816 10.3817C9.88618 10.2641 10.2992 9.79368 10.4173 9.55847C10.5353 9.32325 10.7123 9.38206 10.8893 9.44086C11.0664 9.49966 12.1285 10.0289 12.3055 10.1465C12.5416 10.2641 12.6596 10.3229 12.7186 10.3817C12.7776 10.5581 12.7776 10.9698 12.6006 11.4402Z" />
</svg>
