<svg width="16" height="16" viewBox="0 0 16 16" fill="#14B4F1"  xmlns="http://www.w3.org/2000/svg">
<path d="M13.5588 8.75003C13.3938 8.75003 13.2213 8.69753 13.0563 8.66003C12.7225 8.58537 12.3942 8.48764 12.0738 8.36753C11.7259 8.24095 11.3435 8.24753 11.0001 8.38599C10.6567 8.52444 10.3767 8.78501 10.2138 9.11753L10.0488 9.46253C9.32047 9.04943 8.64757 8.54539 8.04635 7.96253C7.46349 7.36131 6.95945 6.68841 6.54635 5.96003L6.89135 5.80253C7.22387 5.63972 7.48444 5.35968 7.62289 5.0163C7.76135 4.67292 7.76793 4.29046 7.64135 3.94253C7.52224 3.6193 7.42453 3.28859 7.34885 2.95253C7.31135 2.78753 7.28135 2.61503 7.25885 2.45003C7.16777 1.92175 6.89107 1.44334 6.47857 1.10096C6.06606 0.758583 5.54487 0.574737 5.00885 0.58253H2.75135C2.43428 0.582115 2.12071 0.648716 1.83119 0.777968C1.54166 0.90722 1.28273 1.0962 1.07135 1.33253C0.85559 1.57527 0.694936 1.86184 0.600427 2.17256C0.505918 2.48327 0.479794 2.81076 0.52385 3.13253C0.93154 6.25413 2.35776 9.15402 4.58135 11.3825C6.80986 13.6061 9.70975 15.0323 12.8313 15.44C12.9287 15.4475 13.0265 15.4475 13.1238 15.44C13.6769 15.4408 14.2109 15.2379 14.6238 14.87C14.8602 14.6587 15.0492 14.3997 15.1784 14.1102C15.3077 13.8207 15.3743 13.5071 15.3738 13.19V10.94C15.3698 10.4218 15.187 9.92087 14.8563 9.52185C14.5256 9.12284 14.0673 8.85021 13.5588 8.75003ZM13.9263 13.25C13.9261 13.3547 13.904 13.4581 13.8613 13.5537C13.8187 13.6493 13.7565 13.7349 13.6788 13.805C13.5966 13.8799 13.4988 13.9356 13.3925 13.968C13.2861 14.0005 13.1738 14.0088 13.0638 13.9925C10.2651 13.627 7.66404 12.3515 5.66135 10.3625C3.65695 8.35813 2.37037 5.74806 2.00135 2.93753C1.98506 2.82753 1.99343 2.71529 2.02586 2.60892C2.05828 2.50255 2.11396 2.40473 2.18885 2.32253C2.25982 2.24389 2.34663 2.18118 2.44359 2.13852C2.54054 2.09586 2.64543 2.07422 2.75135 2.07503H5.00135C5.17472 2.07079 5.3442 2.12677 5.48095 2.23343C5.61769 2.34009 5.71325 2.49084 5.75135 2.66003C5.75135 2.86253 5.81885 3.07253 5.86385 3.27503C5.95053 3.66793 6.06584 4.05396 6.20885 4.43003L5.15885 4.92503C4.97837 5.00788 4.83812 5.15892 4.76885 5.34503C4.69384 5.52763 4.69384 5.73243 4.76885 5.91503C5.84825 8.2271 7.70678 10.0856 10.0188 11.165C10.2014 11.24 10.4063 11.24 10.5888 11.165C10.775 11.0958 10.926 10.9555 11.0088 10.775L11.4813 9.72503C11.8683 9.86612 12.2642 9.98138 12.6663 10.07C12.8613 10.115 13.0713 10.1525 13.2738 10.1825C13.443 10.2206 13.5938 10.3162 13.7004 10.4529C13.8071 10.5897 13.8631 10.7592 13.8588 10.9325L13.9263 13.25ZM9.50135 0.500031C9.32885 0.500031 9.14885 0.500031 8.97635 0.500031C8.77744 0.516938 8.59339 0.612171 8.46469 0.764778C8.33599 0.917386 8.27319 1.11487 8.2901 1.31378C8.30701 1.51269 8.40224 1.69674 8.55485 1.82544C8.70745 1.95414 8.90494 2.01694 9.10385 2.00003H9.50135C10.6948 2.00003 11.8394 2.47414 12.6833 3.31805C13.5272 4.16196 14.0013 5.30656 14.0013 6.50003C14.0013 6.63503 14.0013 6.76253 14.0013 6.89753C13.9847 7.09539 14.0472 7.29177 14.1752 7.44361C14.3031 7.59545 14.486 7.69036 14.6838 7.70753H14.7438C14.9316 7.70829 15.1128 7.63861 15.2517 7.51224C15.3905 7.38587 15.477 7.21202 15.4938 7.02503C15.4938 6.85253 15.4938 6.67253 15.4938 6.50003C15.4939 4.91003 14.8627 3.38504 13.7391 2.26004C12.6155 1.13504 11.0913 0.502018 9.50135 0.500031V0.500031ZM11.0013 6.50003C11.0013 6.69894 11.0804 6.88971 11.221 7.03036C11.3617 7.17101 11.5524 7.25003 11.7513 7.25003C11.9503 7.25003 12.141 7.17101 12.2817 7.03036C12.4223 6.88971 12.5013 6.69894 12.5013 6.50003C12.5013 5.70438 12.1853 4.94132 11.6227 4.37871C11.0601 3.8161 10.297 3.50003 9.50135 3.50003C9.30244 3.50003 9.11167 3.57905 8.97102 3.7197C8.83037 3.86035 8.75135 4.05112 8.75135 4.25003C8.75135 4.44894 8.83037 4.63971 8.97102 4.78036C9.11167 4.92101 9.30244 5.00003 9.50135 5.00003C9.89917 5.00003 10.2807 5.15807 10.562 5.43937C10.8433 5.72068 11.0013 6.10221 11.0013 6.50003Z" />
</svg>
