<svg width="55" height="55" viewBox="0 0 55 55" fill="none" xmlns="http://www.w3.org/2000/svg">
<path d="M21.5546 5.05613C25.0091 6.50449 29.9947 6.5045 33.4492 5.05614C36.2559 3.87935 39.3954 3.77021 42.2922 5.00333C48.4065 7.60605 51.1483 15.213 48.485 22.074L48.4866 22.0747L46.7041 26.4708C46.2834 27.5085 45.2754 28.1875 44.1556 28.1875L10.8483 28.1875C9.72849 28.1875 8.72054 27.5085 8.29978 26.4708L6.51729 22.0747L6.51893 22.074C3.85562 15.213 6.59735 7.60605 12.7117 5.00333C15.6085 3.77023 18.7479 3.87935 21.5546 5.05613Z" fill="url(#paint0_linear_626_5956)"/>
<path d="M21.5546 5.05613C25.0091 6.50449 29.9947 6.5045 33.4492 5.05614C36.2559 3.87935 39.3954 3.77021 42.2922 5.00333C48.4065 7.60605 51.1483 15.213 48.485 22.074L48.4866 22.0747L46.7041 26.4708C46.2834 27.5085 45.2754 28.1875 44.1556 28.1875L10.8483 28.1875C9.72849 28.1875 8.72054 27.5085 8.29978 26.4708L6.51729 22.0747L6.51893 22.074C3.85562 15.213 6.59735 7.60605 12.7117 5.00333C15.6085 3.77023 18.7479 3.87935 21.5546 5.05613Z" fill="url(#paint1_linear_626_5956)" fill-opacity="0.1"/>
<path d="M21.5546 5.05613C25.0091 6.50449 29.9947 6.5045 33.4492 5.05614C36.2559 3.87935 39.3954 3.77021 42.2922 5.00333C48.4065 7.60605 51.1483 15.213 48.485 22.074L48.4866 22.0747L46.7041 26.4708C46.2834 27.5085 45.2754 28.1875 44.1556 28.1875L10.8483 28.1875C9.72849 28.1875 8.72054 27.5085 8.29978 26.4708L6.51729 22.0747L6.51893 22.074C3.85562 15.213 6.59735 7.60605 12.7117 5.00333C15.6085 3.77023 18.7479 3.87935 21.5546 5.05613Z" fill="url(#paint2_linear_626_5956)" fill-opacity="0.05"/>
<path d="M15.127 30.25H39.877L34.7064 45.69C33.6691 48.7873 30.7683 50.875 27.502 50.875C24.2356 50.875 21.3348 48.7873 20.2976 45.69L15.127 30.25Z" fill="url(#paint3_linear_626_5956)"/>
<path d="M8.25 29.9062C8.25 28.957 9.01951 28.1875 9.96875 28.1875L45.0312 28.1875C45.9805 28.1875 46.75 28.957 46.75 29.9062C46.75 30.8555 45.9805 31.625 45.0312 31.625L9.96875 31.625C9.01951 31.625 8.25 30.8555 8.25 29.9062Z" fill="url(#paint4_linear_626_5956)"/>
<path d="M18.5645 45.375C18.5645 44.6156 19.1801 44 19.9395 44H35.0645C35.8238 44 36.4395 44.6156 36.4395 45.375C36.4395 46.1344 35.8238 46.75 35.0645 46.75H19.9395C19.1801 46.75 18.5645 46.1344 18.5645 45.375Z" fill="url(#paint5_linear_626_5956)"/>
<path d="M16.8438 40.5625C16.8438 39.8031 17.4594 39.1875 18.2188 39.1875H36.7813C37.5406 39.1875 38.1563 39.8031 38.1563 40.5625C38.1563 41.3219 37.5406 41.9375 36.7813 41.9375H18.2188C17.4594 41.9375 16.8438 41.3219 16.8438 40.5625Z" fill="url(#paint6_linear_626_5956)"/>
<path d="M15.127 35.75C15.127 34.9906 15.7426 34.375 16.502 34.375H38.502C39.2613 34.375 39.877 34.9906 39.877 35.75C39.877 36.5094 39.2613 37.125 38.502 37.125H16.502C15.7426 37.125 15.127 36.5094 15.127 35.75Z" fill="url(#paint7_linear_626_5956)"/>
<defs>
<linearGradient id="paint0_linear_626_5956" x1="11.3255" y1="4.125" x2="36.9985" y2="50.1943" gradientUnits="userSpaceOnUse">
<stop stop-color="#F0F6F9"/>
<stop offset="1" stop-color="#CDDFF2"/>
</linearGradient>
<linearGradient id="paint1_linear_626_5956" x1="27.1582" y1="29.2187" x2="27.1582" y2="27.1562" gradientUnits="userSpaceOnUse">
<stop offset="0.241809" stop-color="#065099"/>
<stop offset="1" stop-color="#DFEBF6" stop-opacity="0.47"/>
</linearGradient>
<linearGradient id="paint2_linear_626_5956" x1="27.5019" y1="28.1875" x2="27.502" y2="25.4375" gradientUnits="userSpaceOnUse">
<stop stop-color="#065099"/>
<stop offset="1" stop-color="#065099" stop-opacity="0"/>
</linearGradient>
<linearGradient id="paint3_linear_626_5956" x1="39.877" y1="45.5625" x2="11.7204" y2="36.2467" gradientUnits="userSpaceOnUse">
<stop stop-color="#6AD374"/>
<stop offset="1" stop-color="#BCFBC2"/>
</linearGradient>
<linearGradient id="paint4_linear_626_5956" x1="20.6483" y1="28.1875" x2="31.0854" y2="29.9101" gradientUnits="userSpaceOnUse">
<stop stop-color="#F0F3FF"/>
<stop offset="1" stop-color="#E1E5F5"/>
</linearGradient>
<linearGradient id="paint5_linear_626_5956" x1="24.3208" y1="44" x2="27.9721" y2="44.9578" gradientUnits="userSpaceOnUse">
<stop stop-color="#F1F4FF"/>
<stop offset="1" stop-color="#D5DAF0"/>
</linearGradient>
<linearGradient id="paint6_linear_626_5956" x1="25.1689" y1="39.1875" x2="29.5901" y2="40.4561" gradientUnits="userSpaceOnUse">
<stop stop-color="#F1F4FF"/>
<stop offset="1" stop-color="#D5DAF0"/>
</linearGradient>
<linearGradient id="paint7_linear_626_5956" x1="25.0957" y1="34.375" x2="30.2596" y2="36.0257" gradientUnits="userSpaceOnUse">
<stop stop-color="#F1F4FF"/>
<stop offset="1" stop-color="#D5DAF0"/>
</linearGradient>
</defs>
</svg>
