<svg width="55" height="48" viewBox="0 0 55 48" fill="none" xmlns="http://www.w3.org/2000/svg">
<g clip-path="url(#clip0_626_5998)">
<path fill-rule="evenodd" clip-rule="evenodd" d="M36.2257 3.82347C33.2735 5.10434 29.0127 5.10433 26.0605 3.82346C23.6619 2.78276 20.9789 2.68625 18.5033 3.77676C13.279 6.07807 10.9357 12.8032 13.2096 18.8699C13.2101 18.8712 13.2101 18.8727 13.2095 18.8741L13.9191 20.4366C16.3177 25.7185 18.1257 31.2554 19.3094 36.9441L20.4354 42.3556C20.8251 43.9113 22.2021 45 23.78 45C25.4747 45 26.9187 43.7482 27.1877 42.0459L28.7751 32.0018C28.9621 30.8188 29.9655 29.9489 31.1432 29.9489C32.3208 29.9489 33.3243 30.8188 33.5112 32.0018L35.0986 42.0459C35.3676 43.7482 36.8116 45 38.5063 45C40.0842 45 41.4612 43.9113 41.8509 42.3556L42.9769 36.9441C44.1606 31.2554 45.9686 25.7185 48.3672 20.4366L49.0768 18.8741C49.0762 18.8727 49.0762 18.8712 49.0767 18.8699C51.3506 12.8032 49.0073 6.07807 43.783 3.77676C41.3074 2.68624 38.6244 2.78275 36.2257 3.82347Z" fill="url(#paint0_linear_626_5998)"/>
<g filter="url(#filter0_f_626_5998)">
<path d="M19.4798 7.45458L19.3196 6.6804C19.2376 6.28417 18.8886 6 18.484 6C18.0681 6 17.7129 6.29973 17.6428 6.70962L17.5493 7.25724C17.1907 9.35608 15.5765 11.0173 13.4888 11.436L12.4051 11.6534C12.025 11.7296 11.7515 12.0634 11.7515 12.4511C11.7515 12.8511 12.0422 13.1918 12.4372 13.2547L13.2837 13.3894C15.4747 13.7381 17.1956 15.4518 17.5535 17.6414L17.648 18.22C17.7149 18.6294 18.0686 18.93 18.4835 18.93C18.8876 18.93 19.2354 18.6443 19.3138 18.2479L19.5106 17.2539C19.9012 15.2808 21.475 13.7571 23.4596 13.4305L24.5058 13.2584C24.9012 13.1933 25.1914 12.8514 25.1914 12.4507C25.1914 12.0627 24.919 11.728 24.5391 11.6492L23.4461 11.4225C21.4512 11.0088 19.8927 9.44963 19.4798 7.45458Z" fill="url(#paint1_linear_626_5998)"/>
</g>
<path d="M19.1689 8.87986L18.8486 6.32815C18.8251 6.14066 18.6657 6 18.4767 6C18.2833 6 18.1216 6.14719 18.1035 6.33977L17.8654 8.87406C17.7257 10.3605 16.5679 11.5482 15.0855 11.7256L12.0832 12.085C11.8939 12.1077 11.7515 12.2682 11.7515 12.4588C11.7515 12.6546 11.9016 12.8177 12.0968 12.8339L14.9235 13.0686C16.4859 13.1983 17.729 14.4323 17.8701 15.9938L18.1047 18.5903C18.1221 18.7827 18.2834 18.93 18.4765 18.93C18.6654 18.93 18.8245 18.789 18.8471 18.6015L19.1658 15.962C19.3535 14.4072 20.6062 13.1973 22.1667 13.0639L24.846 12.8348C25.0414 12.8181 25.1914 12.6547 25.1914 12.4586C25.1914 12.268 25.0493 12.1072 24.86 12.0839L22.0304 11.735C20.5354 11.5507 19.3566 10.3744 19.1689 8.87986Z" fill="url(#paint2_linear_626_5998)"/>
<g filter="url(#filter1_f_626_5998)">
<path d="M42.7427 25.5146L42.642 25.0278C42.5904 24.7787 42.371 24.6 42.1166 24.6C41.8551 24.6 41.6317 24.7885 41.5877 25.0462L41.5316 25.3744C41.3044 26.7038 40.282 27.756 38.9597 28.0212L38.2943 28.1547C38.0553 28.2026 37.8834 28.4125 37.8834 28.6563C37.8834 28.9078 38.0662 29.122 38.3145 29.1615L38.8206 29.2421C40.2139 29.4638 41.3082 30.5535 41.5357 31.9459L41.5909 32.2836C41.633 32.541 41.8554 32.73 42.1162 32.73C42.3703 32.73 42.589 32.5504 42.6383 32.3011L42.7621 31.6761C43.0077 30.4355 43.9972 29.4774 45.2451 29.2721L45.9029 29.1638C46.1515 29.1229 46.334 28.908 46.334 28.656C46.334 28.412 46.1627 28.2016 45.9238 28.152L45.2366 28.0095C43.9823 27.7494 43.0023 26.769 42.7427 25.5146Z" fill="url(#paint3_linear_626_5998)"/>
</g>
<path d="M42.5472 26.4108L42.3458 24.8063C42.331 24.6884 42.2308 24.6 42.112 24.6C41.9904 24.6 41.8887 24.6926 41.8773 24.8136L41.7276 26.4071C41.6398 27.3418 40.9118 28.0885 39.9797 28.2001L38.0919 28.4261C37.9729 28.4403 37.8834 28.5413 37.8834 28.6611C37.8834 28.7842 37.9778 28.8868 38.1005 28.897L39.8778 29.0445C40.8602 29.1261 41.6418 29.902 41.7306 30.8838L41.8781 32.5164C41.889 32.6374 41.9904 32.73 42.1119 32.73C42.2306 32.73 42.3306 32.6413 42.3449 32.5234L42.5452 30.8638C42.6633 29.8862 43.451 29.1255 44.4321 29.0416L46.1168 28.8975C46.2396 28.887 46.334 28.7843 46.334 28.661C46.334 28.5411 46.2446 28.44 46.1256 28.4254L44.3464 28.206C43.4064 28.0901 42.6652 27.3505 42.5472 26.4108Z" fill="url(#paint4_linear_626_5998)"/>
<rect width="2" height="6" transform="matrix(-0.926803 -0.375547 -0.367469 0.930036 13 26)" fill="url(#paint5_linear_626_5998)"/>
<circle cx="11.5" cy="11.5" r="11.5" transform="matrix(-0.926803 -0.375547 -0.367469 0.930036 31 8.99998)" fill="url(#paint6_linear_626_5998)"/>
<circle cx="11.5" cy="11.5" r="11.5" transform="matrix(-0.926803 -0.375547 -0.367469 0.930036 31 8.99998)" fill="url(#paint7_linear_626_5998)" fill-opacity="0.6"/>
<circle opacity="0.5" cx="10" cy="10" r="10" transform="matrix(-0.926803 -0.375547 -0.367469 0.930036 29 9.99998)" fill="url(#paint8_linear_626_5998)"/>
<ellipse opacity="0.55" cx="6.5" cy="4.5" rx="6.5" ry="4.5" transform="matrix(-0.529519 -0.848298 -0.84221 0.539149 20 21)" fill="url(#paint9_linear_626_5998)"/>
<g opacity="0.3" filter="url(#filter2_f_626_5998)">
<ellipse cx="8" cy="5" rx="8" ry="5" transform="matrix(0.393818 0.919188 0.919188 -0.393818 34 15)" fill="url(#paint10_linear_626_5998)"/>
</g>
<g filter="url(#filter3_f_626_5998)">
<path d="M23.8433 9.26281L24.1864 8.74067C24.3654 8.46831 24.7107 8.36095 25.0132 8.48356C25.3242 8.60957 25.5011 8.9421 25.4322 9.27097L25.3451 9.68585C24.9906 11.3764 25.7091 13.1187 27.1524 14.0683L27.8898 14.5534C28.1506 14.725 28.2559 15.0572 28.1414 15.347C28.0232 15.646 27.7059 15.8129 27.3931 15.7404L26.7423 15.5898C24.9868 15.1834 23.1772 15.953 22.2523 17.4993L22.0292 17.8722C21.8576 18.1591 21.5039 18.2773 21.1937 18.1516C20.8915 18.0292 20.7161 17.7095 20.7747 17.3882L20.9195 16.5952C21.2112 14.9967 20.4854 13.3776 19.0983 12.5323L18.3647 12.0853C18.0892 11.9174 17.9739 11.5743 18.0923 11.2747C18.2069 10.9846 18.5088 10.8167 18.8151 10.8727L19.7017 11.0348C21.3151 11.3297 22.9425 10.6335 23.8433 9.26281Z" fill="url(#paint11_linear_626_5998)"/>
</g>
<path d="M23.6505 10.4289L24.6432 8.61924C24.7165 8.48572 24.8774 8.42851 25.0187 8.48577C25.1634 8.54438 25.2406 8.70381 25.1971 8.85382L24.6268 10.8195C24.2921 11.9735 24.8045 13.2112 25.8571 13.7912L28.0023 14.9732C28.1367 15.0472 28.1954 15.2102 28.1391 15.3527C28.0813 15.4991 27.9212 15.5757 27.7711 15.5289L25.5804 14.8455C24.3778 14.4703 23.0866 15.0174 22.5197 16.1423L21.5777 18.0116C21.5076 18.1506 21.3434 18.2123 21.1989 18.1538C21.0577 18.0965 20.9805 17.9425 21.0191 17.795L21.5587 15.7324C21.8787 14.5091 21.3003 13.2222 20.1732 12.6498L18.2362 11.666C18.0956 11.5946 18.0321 11.4271 18.09 11.2806C18.1463 11.138 18.2997 11.0608 18.4476 11.1005L20.6736 11.6989C21.8422 12.013 23.0686 11.4899 23.6505 10.4289Z" fill="url(#paint12_linear_626_5998)"/>
<path d="M12.0912 31.4831C12.1808 31.185 12.0301 30.8671 11.7445 30.7514L9.14856 29.6995C8.86291 29.5837 8.53732 29.7086 8.39912 29.987L3.16225 40.5348C2.3748 42.1208 3.09636 44.0495 4.72387 44.709C6.35139 45.3685 8.18758 44.4762 8.69783 42.7778L12.0912 31.4831Z" fill="url(#paint13_linear_626_5998)"/>
<path d="M12.0912 31.4831C12.1808 31.185 12.0301 30.8671 11.7445 30.7514L9.14856 29.6995C8.86291 29.5837 8.53732 29.7086 8.39912 29.987L3.16225 40.5348C2.3748 42.1208 3.09636 44.0495 4.72387 44.709C6.35139 45.3685 8.18758 44.4762 8.69783 42.7778L12.0912 31.4831Z" fill="url(#paint14_linear_626_5998)" fill-opacity="0.6"/>
<path d="M12.0912 31.4831C12.1808 31.185 12.0301 30.8671 11.7445 30.7514L9.14856 29.6995C8.86291 29.5837 8.53732 29.7086 8.39912 29.987L3.16225 40.5348C2.3748 42.1208 3.09636 44.0495 4.72387 44.709C6.35139 45.3685 8.18758 44.4762 8.69783 42.7778L12.0912 31.4831Z" fill="url(#paint15_linear_626_5998)" fill-opacity="0.5"/>
</g>
<defs>
<filter id="filter0_f_626_5998" x="8.81141" y="3.05946" width="19.3205" height="18.8111" filterUnits="userSpaceOnUse" color-interpolation-filters="sRGB">
<feFlood flood-opacity="0" result="BackgroundImageFix"/>
<feBlend mode="normal" in="SourceGraphic" in2="BackgroundImageFix" result="shape"/>
<feGaussianBlur stdDeviation="1.47027" result="effect1_foregroundBlur_626_5998"/>
</filter>
<filter id="filter1_f_626_5998" x="34.9423" y="21.6595" width="14.3323" height="14.0111" filterUnits="userSpaceOnUse" color-interpolation-filters="sRGB">
<feFlood flood-opacity="0" result="BackgroundImageFix"/>
<feBlend mode="normal" in="SourceGraphic" in2="BackgroundImageFix" result="shape"/>
<feGaussianBlur stdDeviation="1.47027" result="effect1_foregroundBlur_626_5998"/>
</filter>
<filter id="filter2_f_626_5998" x="33.2333" y="9.82939" width="17.0256" height="21.11" filterUnits="userSpaceOnUse" color-interpolation-filters="sRGB">
<feFlood flood-opacity="0" result="BackgroundImageFix"/>
<feBlend mode="normal" in="SourceGraphic" in2="BackgroundImageFix" result="shape"/>
<feGaussianBlur stdDeviation="1.47027" result="effect1_foregroundBlur_626_5998"/>
</filter>
<filter id="filter3_f_626_5998" x="15.1063" y="5.49269" width="16.0217" height="15.6494" filterUnits="userSpaceOnUse" color-interpolation-filters="sRGB">
<feFlood flood-opacity="0" result="BackgroundImageFix"/>
<feBlend mode="normal" in="SourceGraphic" in2="BackgroundImageFix" result="shape"/>
<feGaussianBlur stdDeviation="1.47027" result="effect1_foregroundBlur_626_5998"/>
</filter>
<linearGradient id="paint0_linear_626_5998" x1="17.3186" y1="3" x2="40.4255" y2="43.0693" gradientUnits="userSpaceOnUse">
<stop stop-color="#F0F6F9"/>
<stop offset="1" stop-color="#CDDFF2"/>
</linearGradient>
<linearGradient id="paint1_linear_626_5998" x1="18.4714" y1="6" x2="18.4714" y2="18.93" gradientUnits="userSpaceOnUse">
<stop stop-color="white"/>
<stop offset="1" stop-color="white"/>
</linearGradient>
<linearGradient id="paint2_linear_626_5998" x1="18.4714" y1="6" x2="18.4714" y2="18.93" gradientUnits="userSpaceOnUse">
<stop stop-color="white"/>
<stop offset="1" stop-color="white"/>
</linearGradient>
<linearGradient id="paint3_linear_626_5998" x1="42.1087" y1="24.6" x2="42.1087" y2="32.73" gradientUnits="userSpaceOnUse">
<stop stop-color="white"/>
<stop offset="1" stop-color="white"/>
</linearGradient>
<linearGradient id="paint4_linear_626_5998" x1="42.1087" y1="24.6" x2="42.1087" y2="32.73" gradientUnits="userSpaceOnUse">
<stop stop-color="white"/>
<stop offset="1" stop-color="white"/>
</linearGradient>
<linearGradient id="paint5_linear_626_5998" x1="1.66667" y1="0.25" x2="0.43379" y2="3.53767" gradientUnits="userSpaceOnUse">
<stop stop-color="#B9BED9"/>
<stop offset="1" stop-color="#D3D7E8"/>
</linearGradient>
<linearGradient id="paint6_linear_626_5998" x1="11.5" y1="0" x2="11.5" y2="23" gradientUnits="userSpaceOnUse">
<stop stop-color="#E9F2F7"/>
<stop offset="1" stop-color="#CDDDE4"/>
</linearGradient>
<linearGradient id="paint7_linear_626_5998" x1="10.3615" y1="22.1154" x2="10.3615" y2="11.5" gradientUnits="userSpaceOnUse">
<stop stop-color="#79DA82"/>
<stop offset="0.648933" stop-color="#B2F6B8"/>
</linearGradient>
<linearGradient id="paint8_linear_626_5998" x1="10" y1="0" x2="10" y2="20" gradientUnits="userSpaceOnUse">
<stop stop-color="white"/>
<stop offset="1" stop-color="#E4E6ED"/>
</linearGradient>
<linearGradient id="paint9_linear_626_5998" x1="6.16526" y1="-2.00213" x2="6.27015" y2="12.4127" gradientUnits="userSpaceOnUse">
<stop stop-color="white" stop-opacity="0"/>
<stop offset="1" stop-color="white"/>
</linearGradient>
<linearGradient id="paint10_linear_626_5998" x1="5.15238" y1="2.97606" x2="5.42448" y2="13.2502" gradientUnits="userSpaceOnUse">
<stop stop-color="white" stop-opacity="0"/>
<stop offset="1" stop-color="white"/>
</linearGradient>
<linearGradient id="paint11_linear_626_5998" x1="25.0227" y1="8.48737" x2="21.1189" y2="18.1213" gradientUnits="userSpaceOnUse">
<stop stop-color="white"/>
<stop offset="1" stop-color="white"/>
</linearGradient>
<linearGradient id="paint12_linear_626_5998" x1="25.0227" y1="8.48737" x2="21.1189" y2="18.1213" gradientUnits="userSpaceOnUse">
<stop stop-color="white"/>
<stop offset="1" stop-color="white"/>
</linearGradient>
<linearGradient id="paint13_linear_626_5998" x1="10.4744" y1="39.038" x2="4.84569" y2="37.1292" gradientUnits="userSpaceOnUse">
<stop stop-color="#78DA81"/>
<stop offset="0.3125" stop-color="#B3F6B9"/>
<stop offset="1" stop-color="#78DA82"/>
</linearGradient>
<linearGradient id="paint14_linear_626_5998" x1="5.21901" y1="44.2634" x2="7.91819" y2="37.6021" gradientUnits="userSpaceOnUse">
<stop stop-color="#79DA82"/>
<stop offset="0.648933" stop-color="#B2F6B8"/>
</linearGradient>
<linearGradient id="paint15_linear_626_5998" x1="10.4465" y1="30.2254" x2="10.1091" y2="31.0581" gradientUnits="userSpaceOnUse">
<stop stop-color="white"/>
<stop offset="1" stop-color="white" stop-opacity="0"/>
</linearGradient>
<clipPath id="clip0_626_5998">
<rect width="55" height="48" fill="white"/>
</clipPath>
</defs>
</svg>
