<svg width="55" height="55" viewBox="0 0 55 55" fill="none" xmlns="http://www.w3.org/2000/svg">
<g clip-path="url(#clip0_626_6100)">
<path fill-rule="evenodd" clip-rule="evenodd" d="M33.7143 4.94355C30.2887 6.41122 25.3446 6.41121 21.9189 4.94354C19.1356 3.75108 16.0223 3.6405 13.1496 4.89004C7.08745 7.52695 4.36845 15.2329 7.00696 22.1843C7.00754 22.1858 7.00751 22.1875 7.00687 22.189L7.83026 23.9794C10.6136 30.0316 12.7115 36.3759 14.0851 42.8943L15.3917 49.095C15.8438 50.8775 17.4417 52.125 19.2726 52.125C21.2391 52.125 22.9147 50.6907 23.2269 48.7401L25.0689 37.2312C25.2858 35.8757 26.4502 34.879 27.8167 34.879C29.1832 34.879 30.3476 35.8757 30.5645 37.2312L32.4065 48.7401C32.7186 50.6907 34.3942 52.125 36.3607 52.125C38.1917 52.125 39.7895 50.8775 40.2417 49.095L41.5483 42.8943C42.9218 36.3759 45.0197 30.0316 47.8031 23.9794L48.6265 22.189C48.6258 22.1875 48.6258 22.1858 48.6264 22.1843C51.2649 15.2329 48.5459 7.52695 42.4837 4.89004C39.611 3.64048 36.4977 3.75107 33.7143 4.94355Z" fill="url(#paint0_linear_626_6100)"/>
<path fill-rule="evenodd" clip-rule="evenodd" d="M33.7143 4.94355C30.2887 6.41122 25.3446 6.41121 21.9189 4.94354C19.1356 3.75108 16.0223 3.6405 13.1496 4.89004C7.08745 7.52695 4.36845 15.2329 7.00696 22.1843C7.00754 22.1858 7.00751 22.1875 7.00687 22.189L7.83026 23.9794C10.6136 30.0316 12.7115 36.3759 14.0851 42.8943L15.3917 49.095C15.8438 50.8775 17.4417 52.125 19.2726 52.125C21.2391 52.125 22.9147 50.6907 23.2269 48.7401L25.0689 37.2312C25.2858 35.8757 26.4502 34.879 27.8167 34.879C29.1832 34.879 30.3476 35.8757 30.5645 37.2312L32.4065 48.7401C32.7186 50.6907 34.3942 52.125 36.3607 52.125C38.1917 52.125 39.7895 50.8775 40.2417 49.095L41.5483 42.8943C42.9218 36.3759 45.0197 30.0316 47.8031 23.9794L48.6265 22.189C48.6258 22.1875 48.6258 22.1858 48.6264 22.1843C51.2649 15.2329 48.5459 7.52695 42.4837 4.89004C39.611 3.64048 36.4977 3.75107 33.7143 4.94355Z" fill="url(#paint1_linear_626_6100)" fill-opacity="0.1"/>
<path fill-rule="evenodd" clip-rule="evenodd" d="M33.7143 4.94355C30.2887 6.41122 25.3446 6.41121 21.9189 4.94354C19.1356 3.75108 16.0223 3.6405 13.1496 4.89004C7.08745 7.52695 4.36845 15.2329 7.00696 22.1843C7.00754 22.1858 7.00751 22.1875 7.00687 22.189L7.83026 23.9794C10.6136 30.0316 12.7115 36.3759 14.0851 42.8943L15.3917 49.095C15.8438 50.8775 17.4417 52.125 19.2726 52.125C21.2391 52.125 22.9147 50.6907 23.2269 48.7401L25.0689 37.2312C25.2858 35.8757 26.4502 34.879 27.8167 34.879C29.1832 34.879 30.3476 35.8757 30.5645 37.2312L32.4065 48.7401C32.7186 50.6907 34.3942 52.125 36.3607 52.125C38.1917 52.125 39.7895 50.8775 40.2417 49.095L41.5483 42.8943C42.9218 36.3759 45.0197 30.0316 47.8031 23.9794L48.6265 22.189C48.6258 22.1875 48.6258 22.1858 48.6264 22.1843C51.2649 15.2329 48.5459 7.52695 42.4837 4.89004C39.611 3.64048 36.4977 3.75107 33.7143 4.94355Z" fill="url(#paint2_linear_626_6100)" fill-opacity="0.05"/>
<path fill-rule="evenodd" clip-rule="evenodd" d="M33.7143 4.94355C30.2887 6.41122 25.3446 6.41121 21.9189 4.94354C19.1356 3.75108 16.0223 3.6405 13.1496 4.89004C7.08745 7.52695 4.36845 15.2329 7.00696 22.1843C7.00754 22.1858 7.00751 22.1875 7.00687 22.189L7.83026 23.9794C10.6136 30.0316 12.7115 36.3759 14.0851 42.8943L15.3917 49.095C15.8438 50.8775 17.4417 52.125 19.2726 52.125C21.2391 52.125 22.9147 50.6907 23.2269 48.7401L25.0689 37.2312C25.2858 35.8757 26.4502 34.879 27.8167 34.879C29.1832 34.879 30.3476 35.8757 30.5645 37.2312L32.4065 48.7401C32.7186 50.6907 34.3942 52.125 36.3607 52.125C38.1917 52.125 39.7895 50.8775 40.2417 49.095L41.5483 42.8943C42.9218 36.3759 45.0197 30.0316 47.8031 23.9794L48.6265 22.189C48.6258 22.1875 48.6258 22.1858 48.6264 22.1843C51.2649 15.2329 48.5459 7.52695 42.4837 4.89004C39.611 3.64048 36.4977 3.75107 33.7143 4.94355Z" fill="url(#paint3_linear_626_6100)"/>
<path fill-rule="evenodd" clip-rule="evenodd" d="M33.7143 4.94355C30.2887 6.41122 25.3446 6.41121 21.9189 4.94354C19.1356 3.75108 16.0223 3.6405 13.1496 4.89004C7.08745 7.52695 4.36845 15.2329 7.00696 22.1843C7.00754 22.1858 7.00751 22.1875 7.00687 22.189L7.83026 23.9794C10.6136 30.0316 12.7115 36.3759 14.0851 42.8943L15.3917 49.095C15.8438 50.8775 17.4417 52.125 19.2726 52.125C21.2391 52.125 22.9147 50.6907 23.2269 48.7401L25.0689 37.2312C25.2858 35.8757 26.4502 34.879 27.8167 34.879C29.1832 34.879 30.3476 35.8757 30.5645 37.2312L32.4065 48.7401C32.7186 50.6907 34.3942 52.125 36.3607 52.125C38.1917 52.125 39.7895 50.8775 40.2417 49.095L41.5483 42.8943C42.9218 36.3759 45.0197 30.0316 47.8031 23.9794L48.6265 22.189C48.6258 22.1875 48.6258 22.1858 48.6264 22.1843C51.2649 15.2329 48.5459 7.52695 42.4837 4.89004C39.611 3.64048 36.4977 3.75107 33.7143 4.94355Z" fill="white" fill-opacity="0.3" style="mix-blend-mode:screen"/>
<g filter="url(#filter0_f_626_6100)">
<path d="M16.0338 7.20852L15.801 6.85792C15.6732 6.66544 15.4279 6.58891 15.2133 6.67453C14.9927 6.76256 14.8674 6.9966 14.9165 7.22902L14.977 7.51494C15.2272 8.69899 14.7222 9.91485 13.7067 10.5732L13.1674 10.9228C12.9841 11.0417 12.9103 11.2735 12.9913 11.4764C13.0748 11.6857 13.2982 11.803 13.5179 11.753L14 11.6433C15.2343 11.3624 16.5097 11.9042 17.1645 12.9875L17.32 13.2449C17.4426 13.4477 17.6939 13.5321 17.914 13.4442C18.1283 13.3587 18.2526 13.1338 18.2109 12.9069L18.1121 12.3699C17.9048 11.2418 18.4188 10.1035 19.4021 9.51314L19.9264 9.19832C20.12 9.08212 20.2007 8.84272 20.1171 8.63305C20.036 8.42997 19.8233 8.3119 19.6081 8.35054L18.9752 8.46416C17.8321 8.66937 16.6763 8.17598 16.0338 7.20852Z" fill="#D8E6EC"/>
<path d="M16.0338 7.20852L15.801 6.85792C15.6732 6.66544 15.4279 6.58891 15.2133 6.67453C14.9927 6.76256 14.8674 6.9966 14.9165 7.22902L14.977 7.51494C15.2272 8.69899 14.7222 9.91485 13.7067 10.5732L13.1674 10.9228C12.9841 11.0417 12.9103 11.2735 12.9913 11.4764C13.0748 11.6857 13.2982 11.803 13.5179 11.753L14 11.6433C15.2343 11.3624 16.5097 11.9042 17.1645 12.9875L17.32 13.2449C17.4426 13.4477 17.6939 13.5321 17.914 13.4442C18.1283 13.3587 18.2526 13.1338 18.2109 12.9069L18.1121 12.3699C17.9048 11.2418 18.4188 10.1035 19.4021 9.51314L19.9264 9.19832C20.12 9.08212 20.2007 8.84272 20.1171 8.63305C20.036 8.42997 19.8233 8.3119 19.6081 8.35054L18.9752 8.46416C17.8321 8.66937 16.6763 8.17598 16.0338 7.20852Z" fill="url(#paint4_linear_626_6100)"/>
<path d="M16.0338 7.20852L15.801 6.85792C15.6732 6.66544 15.4279 6.58891 15.2133 6.67453C14.9927 6.76256 14.8674 6.9966 14.9165 7.22902L14.977 7.51494C15.2272 8.69899 14.7222 9.91485 13.7067 10.5732L13.1674 10.9228C12.9841 11.0417 12.9103 11.2735 12.9913 11.4764C13.0748 11.6857 13.2982 11.803 13.5179 11.753L14 11.6433C15.2343 11.3624 16.5097 11.9042 17.1645 12.9875L17.32 13.2449C17.4426 13.4477 17.6939 13.5321 17.914 13.4442C18.1283 13.3587 18.2526 13.1338 18.2109 12.9069L18.1121 12.3699C17.9048 11.2418 18.4188 10.1035 19.4021 9.51314L19.9264 9.19832C20.12 9.08212 20.2007 8.84272 20.1171 8.63305C20.036 8.42997 19.8233 8.3119 19.6081 8.35054L18.9752 8.46416C17.8321 8.66937 16.6763 8.17598 16.0338 7.20852Z" fill="#6AD474" fill-opacity="0.25"/>
</g>
<path d="M16.1774 8.03641L15.4762 6.77124C15.4239 6.67687 15.3096 6.63611 15.2094 6.67609C15.1068 6.71703 15.0521 6.82927 15.0832 6.9353L15.4853 8.30906C15.7219 9.11746 15.3624 9.98139 14.6221 10.3832L13.0886 11.2156C12.9942 11.2668 12.953 11.3806 12.9928 11.4804C13.0337 11.5828 13.1464 11.6368 13.2519 11.6044L14.8195 11.1232C15.6649 10.8637 16.5745 11.2494 16.9757 12.0375L17.6411 13.3444C17.6911 13.4427 17.8078 13.4866 17.9103 13.4457C18.0104 13.4058 18.065 13.2974 18.0375 13.1931L17.6599 11.7621C17.4322 10.8989 17.841 9.99431 18.6394 9.5949L20.0164 8.90601C20.1152 8.85659 20.1596 8.73975 20.1187 8.63715C20.0789 8.53735 19.9708 8.48296 19.8669 8.51043L18.2755 8.93119C17.4537 9.14845 16.5894 8.77984 16.1774 8.03641Z" fill="#D8E6EC"/>
<path d="M16.1774 8.03641L15.4762 6.77124C15.4239 6.67687 15.3096 6.63611 15.2094 6.67609C15.1068 6.71703 15.0521 6.82927 15.0832 6.9353L15.4853 8.30906C15.7219 9.11746 15.3624 9.98139 14.6221 10.3832L13.0886 11.2156C12.9942 11.2668 12.953 11.3806 12.9928 11.4804C13.0337 11.5828 13.1464 11.6368 13.2519 11.6044L14.8195 11.1232C15.6649 10.8637 16.5745 11.2494 16.9757 12.0375L17.6411 13.3444C17.6911 13.4427 17.8078 13.4866 17.9103 13.4457C18.0104 13.4058 18.065 13.2974 18.0375 13.1931L17.6599 11.7621C17.4322 10.8989 17.841 9.99431 18.6394 9.5949L20.0164 8.90601C20.1152 8.85659 20.1596 8.73975 20.1187 8.63715C20.0789 8.53735 19.9708 8.48296 19.8669 8.51043L18.2755 8.93119C17.4537 9.14845 16.5894 8.77984 16.1774 8.03641Z" fill="url(#paint5_linear_626_6100)"/>
<path d="M16.1774 8.03641L15.4762 6.77124C15.4239 6.67687 15.3096 6.63611 15.2094 6.67609C15.1068 6.71703 15.0521 6.82927 15.0832 6.9353L15.4853 8.30906C15.7219 9.11746 15.3624 9.98139 14.6221 10.3832L13.0886 11.2156C12.9942 11.2668 12.953 11.3806 12.9928 11.4804C13.0337 11.5828 13.1464 11.6368 13.2519 11.6044L14.8195 11.1232C15.6649 10.8637 16.5745 11.2494 16.9757 12.0375L17.6411 13.3444C17.6911 13.4427 17.8078 13.4866 17.9103 13.4457C18.0104 13.4058 18.065 13.2974 18.0375 13.1931L17.6599 11.7621C17.4322 10.8989 17.841 9.99431 18.6394 9.5949L20.0164 8.90601C20.1152 8.85659 20.1596 8.73975 20.1187 8.63715C20.0789 8.53735 19.9708 8.48296 19.8669 8.51043L18.2755 8.93119C17.4537 9.14845 16.5894 8.77984 16.1774 8.03641Z" fill="url(#paint6_linear_626_6100)"/>
<path d="M16.1774 8.03641L15.4762 6.77124C15.4239 6.67687 15.3096 6.63611 15.2094 6.67609C15.1068 6.71703 15.0521 6.82927 15.0832 6.9353L15.4853 8.30906C15.7219 9.11746 15.3624 9.98139 14.6221 10.3832L13.0886 11.2156C12.9942 11.2668 12.953 11.3806 12.9928 11.4804C13.0337 11.5828 13.1464 11.6368 13.2519 11.6044L14.8195 11.1232C15.6649 10.8637 16.5745 11.2494 16.9757 12.0375L17.6411 13.3444C17.6911 13.4427 17.8078 13.4866 17.9103 13.4457C18.0104 13.4058 18.065 13.2974 18.0375 13.1931L17.6599 11.7621C17.4322 10.8989 17.841 9.99431 18.6394 9.5949L20.0164 8.90601C20.1152 8.85659 20.1596 8.73975 20.1187 8.63715C20.0789 8.53735 19.9708 8.48296 19.8669 8.51043L18.2755 8.93119C17.4537 9.14845 16.5894 8.77984 16.1774 8.03641Z" fill="#6AD474"/>
<path d="M16.1774 8.03641L15.4762 6.77124C15.4239 6.67687 15.3096 6.63611 15.2094 6.67609C15.1068 6.71703 15.0521 6.82927 15.0832 6.9353L15.4853 8.30906C15.7219 9.11746 15.3624 9.98139 14.6221 10.3832L13.0886 11.2156C12.9942 11.2668 12.953 11.3806 12.9928 11.4804C13.0337 11.5828 13.1464 11.6368 13.2519 11.6044L14.8195 11.1232C15.6649 10.8637 16.5745 11.2494 16.9757 12.0375L17.6411 13.3444C17.6911 13.4427 17.8078 13.4866 17.9103 13.4457C18.0104 13.4058 18.065 13.2974 18.0375 13.1931L17.6599 11.7621C17.4322 10.8989 17.841 9.99431 18.6394 9.5949L20.0164 8.90601C20.1152 8.85659 20.1596 8.73975 20.1187 8.63715C20.0789 8.53735 19.9708 8.48296 19.8669 8.51043L18.2755 8.93119C17.4537 9.14845 16.5894 8.77984 16.1774 8.03641Z" fill="url(#paint7_linear_626_6100)"/>
<g filter="url(#filter1_f_626_6100)">
<path d="M21.417 12.6215L20.9834 12.3031C20.7454 12.1283 20.4174 12.1442 20.1975 12.3413C19.9714 12.544 19.9239 12.8799 20.0851 13.1372L20.2833 13.4538C21.1041 14.7649 21.0325 16.4461 20.1031 17.6825L19.6095 18.3393C19.4417 18.5625 19.4551 18.8731 19.6415 19.0811C19.8337 19.2955 20.1534 19.3382 20.3951 19.1816L20.9256 18.8379C22.2834 17.9583 24.0522 18.0479 25.3143 19.0602L25.6141 19.3007C25.8503 19.4902 26.189 19.481 26.4146 19.2788C26.6342 19.082 26.6844 18.7575 26.5346 18.5034L26.1801 17.9023C25.4354 16.6397 25.5519 15.0476 26.4725 13.9068L26.9634 13.2985C27.1446 13.0739 27.1362 12.7511 26.9437 12.5363C26.7572 12.3282 26.45 12.2799 26.2087 12.4209L25.499 12.8355C24.2174 13.5843 22.6134 13.5002 21.417 12.6215Z" fill="#6AD474" fill-opacity="0.25"/>
</g>
<path d="M21.9532 13.552L20.5556 12.3418C20.4513 12.2516 20.2962 12.2529 20.1935 12.3449C20.0884 12.4392 20.0721 12.5979 20.1559 12.7115L21.2424 14.1835C21.8818 15.0496 21.83 16.2445 21.1182 17.0522L19.6436 18.7253C19.5529 18.8283 19.5535 18.9829 19.6451 19.0851C19.7393 19.1901 19.8982 19.2054 20.0105 19.1202L21.6804 17.8535C22.581 17.1705 23.8422 17.2335 24.6701 18.003L26.0431 19.2789C26.1463 19.3749 26.3057 19.3764 26.4107 19.2823C26.5134 19.1903 26.5312 19.0362 26.4524 18.9232L25.3702 17.3716C24.7174 16.4358 24.8104 15.1705 25.593 14.3402L26.9428 12.9081C27.0396 12.8054 27.0417 12.6456 26.9474 12.5405C26.8558 12.4382 26.7022 12.4204 26.5896 12.499L24.8645 13.7036C23.9738 14.3256 22.7745 14.2631 21.9532 13.552Z" fill="#D8E6EC"/>
<path d="M21.9532 13.552L20.5556 12.3418C20.4513 12.2516 20.2962 12.2529 20.1935 12.3449C20.0884 12.4392 20.0721 12.5979 20.1559 12.7115L21.2424 14.1835C21.8818 15.0496 21.83 16.2445 21.1182 17.0522L19.6436 18.7253C19.5529 18.8283 19.5535 18.9829 19.6451 19.0851C19.7393 19.1901 19.8982 19.2054 20.0105 19.1202L21.6804 17.8535C22.581 17.1705 23.8422 17.2335 24.6701 18.003L26.0431 19.2789C26.1463 19.3749 26.3057 19.3764 26.4107 19.2823C26.5134 19.1903 26.5312 19.0362 26.4524 18.9232L25.3702 17.3716C24.7174 16.4358 24.8104 15.1705 25.593 14.3402L26.9428 12.9081C27.0396 12.8054 27.0417 12.6456 26.9474 12.5405C26.8558 12.4382 26.7022 12.4204 26.5896 12.499L24.8645 13.7036C23.9738 14.3256 22.7745 14.2631 21.9532 13.552Z" fill="url(#paint8_linear_626_6100)"/>
<path d="M21.9532 13.552L20.5556 12.3418C20.4513 12.2516 20.2962 12.2529 20.1935 12.3449C20.0884 12.4392 20.0721 12.5979 20.1559 12.7115L21.2424 14.1835C21.8818 15.0496 21.83 16.2445 21.1182 17.0522L19.6436 18.7253C19.5529 18.8283 19.5535 18.9829 19.6451 19.0851C19.7393 19.1901 19.8982 19.2054 20.0105 19.1202L21.6804 17.8535C22.581 17.1705 23.8422 17.2335 24.6701 18.003L26.0431 19.2789C26.1463 19.3749 26.3057 19.3764 26.4107 19.2823C26.5134 19.1903 26.5312 19.0362 26.4524 18.9232L25.3702 17.3716C24.7174 16.4358 24.8104 15.1705 25.593 14.3402L26.9428 12.9081C27.0396 12.8054 27.0417 12.6456 26.9474 12.5405C26.8558 12.4382 26.7022 12.4204 26.5896 12.499L24.8645 13.7036C23.9738 14.3256 22.7745 14.2631 21.9532 13.552Z" fill="url(#paint9_linear_626_6100)"/>
<path d="M21.9532 13.552L20.5556 12.3418C20.4513 12.2516 20.2962 12.2529 20.1935 12.3449C20.0884 12.4392 20.0721 12.5979 20.1559 12.7115L21.2424 14.1835C21.8818 15.0496 21.83 16.2445 21.1182 17.0522L19.6436 18.7253C19.5529 18.8283 19.5535 18.9829 19.6451 19.0851C19.7393 19.1901 19.8982 19.2054 20.0105 19.1202L21.6804 17.8535C22.581 17.1705 23.8422 17.2335 24.6701 18.003L26.0431 19.2789C26.1463 19.3749 26.3057 19.3764 26.4107 19.2823C26.5134 19.1903 26.5312 19.0362 26.4524 18.9232L25.3702 17.3716C24.7174 16.4358 24.8104 15.1705 25.593 14.3402L26.9428 12.9081C27.0396 12.8054 27.0417 12.6456 26.9474 12.5405C26.8558 12.4382 26.7022 12.4204 26.5896 12.499L24.8645 13.7036C23.9738 14.3256 22.7745 14.2631 21.9532 13.552Z" fill="#6AD474"/>
<path d="M21.9532 13.552L20.5556 12.3418C20.4513 12.2516 20.2962 12.2529 20.1935 12.3449C20.0884 12.4392 20.0721 12.5979 20.1559 12.7115L21.2424 14.1835C21.8818 15.0496 21.83 16.2445 21.1182 17.0522L19.6436 18.7253C19.5529 18.8283 19.5535 18.9829 19.6451 19.0851C19.7393 19.1901 19.8982 19.2054 20.0105 19.1202L21.6804 17.8535C22.581 17.1705 23.8422 17.2335 24.6701 18.003L26.0431 19.2789C26.1463 19.3749 26.3057 19.3764 26.4107 19.2823C26.5134 19.1903 26.5312 19.0362 26.4524 18.9232L25.3702 17.3716C24.7174 16.4358 24.8104 15.1705 25.593 14.3402L26.9428 12.9081C27.0396 12.8054 27.0417 12.6456 26.9474 12.5405C26.8558 12.4382 26.7022 12.4204 26.5896 12.499L24.8645 13.7036C23.9738 14.3256 22.7745 14.2631 21.9532 13.552Z" fill="url(#paint10_linear_626_6100)"/>
</g>
<defs>
<filter id="filter0_f_626_6100" x="3.40223" y="-2.91703" width="26.3049" height="25.9526" filterUnits="userSpaceOnUse" color-interpolation-filters="sRGB">
<feFlood flood-opacity="0" result="BackgroundImageFix"/>
<feBlend mode="normal" in="SourceGraphic" in2="BackgroundImageFix" result="shape"/>
<feGaussianBlur stdDeviation="4.77838" result="effect1_foregroundBlur_626_6100"/>
</filter>
<filter id="filter1_f_626_6100" x="8.46516" y="1.15496" width="29.6556" height="29.309" filterUnits="userSpaceOnUse" color-interpolation-filters="sRGB">
<feFlood flood-opacity="0" result="BackgroundImageFix"/>
<feBlend mode="normal" in="SourceGraphic" in2="BackgroundImageFix" result="shape"/>
<feGaussianBlur stdDeviation="5.51351" result="effect1_foregroundBlur_626_6100"/>
</filter>
<linearGradient id="paint0_linear_626_6100" x1="11.775" y1="4" x2="71.7415" y2="57.3556" gradientUnits="userSpaceOnUse">
<stop stop-color="#F0F6F9"/>
<stop offset="1" stop-color="#90BEEE"/>
</linearGradient>
<linearGradient id="paint1_linear_626_6100" x1="27.4758" y1="54.1875" x2="27.4758" y2="50.0625" gradientUnits="userSpaceOnUse">
<stop offset="0.241809" stop-color="#065099"/>
<stop offset="1" stop-color="#DFEBF6" stop-opacity="0.47"/>
</linearGradient>
<linearGradient id="paint2_linear_626_6100" x1="27.8167" y1="52.125" x2="27.8167" y2="46.625" gradientUnits="userSpaceOnUse">
<stop stop-color="#065099"/>
<stop offset="1" stop-color="#065099" stop-opacity="0"/>
</linearGradient>
<linearGradient id="paint3_linear_626_6100" x1="5.79044" y1="19.3842" x2="22.3818" y2="42.9022" gradientUnits="userSpaceOnUse">
<stop stop-color="#F0F6F9"/>
<stop offset="1" stop-color="#CDDFF2"/>
</linearGradient>
<linearGradient id="paint4_linear_626_6100" x1="15.8994" y1="6.37905" x2="16.2402" y2="14.3096" gradientUnits="userSpaceOnUse">
<stop stop-color="#F2F5FF"/>
<stop offset="0.151042" stop-color="#F8F9FE"/>
<stop offset="1" stop-color="#D6DBF1"/>
</linearGradient>
<linearGradient id="paint5_linear_626_6100" x1="16.4748" y1="6.17124" x2="14.5031" y2="6.99357" gradientUnits="userSpaceOnUse">
<stop stop-color="#F0F3FF"/>
<stop offset="1" stop-color="#E1E5F5"/>
</linearGradient>
<linearGradient id="paint6_linear_626_6100" x1="15.8994" y1="6.37905" x2="16.2402" y2="14.3096" gradientUnits="userSpaceOnUse">
<stop stop-color="#F2F5FF"/>
<stop offset="0.151042" stop-color="#F8F9FE"/>
<stop offset="1" stop-color="#D6DBF1"/>
</linearGradient>
<linearGradient id="paint7_linear_626_6100" x1="13.6489" y1="13.1247" x2="20.9837" y2="7.40744" gradientUnits="userSpaceOnUse">
<stop stop-color="#6AD374"/>
<stop offset="1" stop-color="#BCFBC2"/>
</linearGradient>
<linearGradient id="paint8_linear_626_6100" x1="21.4902" y1="11.1828" x2="19.4854" y2="13.0364" gradientUnits="userSpaceOnUse">
<stop stop-color="#F0F3FF"/>
<stop offset="1" stop-color="#E1E5F5"/>
</linearGradient>
<linearGradient id="paint9_linear_626_6100" x1="20.891" y1="11.6851" x2="24.7862" y2="21.0532" gradientUnits="userSpaceOnUse">
<stop stop-color="#F2F5FF"/>
<stop offset="0.151042" stop-color="#F8F9FE"/>
<stop offset="1" stop-color="#D6DBF1"/>
</linearGradient>
<linearGradient id="paint10_linear_626_6100" x1="21.1553" y1="20.7702" x2="27.445" y2="10.6844" gradientUnits="userSpaceOnUse">
<stop stop-color="#6AD374"/>
<stop offset="1" stop-color="#BCFBC2"/>
</linearGradient>
<clipPath id="clip0_626_6100">
<rect width="55" height="55" fill="white"/>
</clipPath>
</defs>
</svg>
