<svg width="55" height="55" viewBox="0 0 55 55" fill="none" xmlns="http://www.w3.org/2000/svg">
<path d="M18.2729 26.8273C18.5116 25.5208 19.65 24.5716 20.9781 24.5716H34.0306C35.3551 24.5716 36.4903 25.5182 36.7284 26.8211C36.9662 28.1222 36.9504 29.4962 37.463 30.7155C38.1154 32.2671 39.5178 33.2867 40.9048 34.1698L14.0117 34.2127C15.3822 33.3402 16.8022 32.1104 17.4909 30.6114C18.0181 29.464 18.0308 28.1522 18.2578 26.9101L18.2729 26.8273Z" fill="url(#paint0_linear_626_6160)"/>
<path d="M18.2729 26.8273C18.5116 25.5208 19.65 24.5716 20.9781 24.5716H34.0306C35.3551 24.5716 36.4903 25.5182 36.7284 26.8211C36.9662 28.1222 36.9504 29.4962 37.463 30.7155C38.1154 32.2671 39.5178 33.2867 40.9048 34.1698L14.0117 34.2127C15.3822 33.3402 16.8022 32.1104 17.4909 30.6114C18.0181 29.464 18.0308 28.1522 18.2578 26.9101L18.2729 26.8273Z" fill="url(#paint1_linear_626_6160)" fill-opacity="0.4"/>
<path d="M18.2729 26.8273C18.5116 25.5208 19.65 24.5716 20.9781 24.5716H34.0306C35.3551 24.5716 36.4903 25.5182 36.7284 26.8211C36.9662 28.1222 36.9504 29.4962 37.463 30.7155C38.1154 32.2671 39.5178 33.2867 40.9048 34.1698L14.0117 34.2127C15.3822 33.3402 16.8022 32.1104 17.4909 30.6114C18.0181 29.464 18.0308 28.1522 18.2578 26.9101L18.2729 26.8273Z" fill="url(#paint2_linear_626_6160)" fill-opacity="0.05"/>
<path d="M18.2729 26.8273C18.5116 25.5208 19.65 24.5716 20.9781 24.5716H34.0306C35.3551 24.5716 36.4903 25.5182 36.7284 26.8211C36.9662 28.1222 36.9504 29.4962 37.463 30.7155C38.1154 32.2671 39.5178 33.2867 40.9048 34.1698L14.0117 34.2127C15.3822 33.3402 16.8022 32.1104 17.4909 30.6114C18.0181 29.464 18.0308 28.1522 18.2578 26.9101L18.2729 26.8273Z" fill="url(#paint3_linear_626_6160)"/>
<path d="M41.8448 36.4924C42.128 35.6064 41.7581 34.6458 40.9699 34.1988C40.8659 34.1398 40.7512 34.103 40.6353 34.0737L30.5302 31.5234C28.5426 31.0217 26.4614 31.0217 24.4737 31.5233L14.3686 34.0736C14.2527 34.1029 14.1381 34.1397 14.034 34.1987C13.2458 34.6457 12.8759 35.6063 13.1591 36.4923C14.0656 39.328 14.4945 41.2785 15.201 44.6342L16.0316 48.5796C16.4487 50.2281 17.9216 51.3822 19.6101 51.3841L19.6144 51.3841L19.6186 51.3841C21.4322 51.382 22.9768 50.0551 23.2648 48.2511L24.9653 37.7029C25.1656 36.4483 26.2405 35.4757 27.502 35.4757C28.7635 35.4757 29.8384 36.4483 30.0387 37.7029L31.7391 48.2511C32.0271 50.0551 33.5717 51.382 35.3853 51.3841L35.3895 51.3841L35.3938 51.3841C37.0823 51.3822 38.5553 50.2281 38.9723 48.5796L39.8029 44.6342C40.5094 41.2785 40.9383 39.3281 41.8448 36.4924Z" fill="url(#paint4_linear_626_6160)"/>
<path d="M41.8448 36.4924C42.128 35.6064 41.7581 34.6458 40.9699 34.1988C40.8659 34.1398 40.7512 34.103 40.6353 34.0737L30.5302 31.5234C28.5426 31.0217 26.4614 31.0217 24.4737 31.5233L14.3686 34.0736C14.2527 34.1029 14.1381 34.1397 14.034 34.1987C13.2458 34.6457 12.8759 35.6063 13.1591 36.4923C14.0656 39.328 14.4945 41.2785 15.201 44.6342L16.0316 48.5796C16.4487 50.2281 17.9216 51.3822 19.6101 51.3841L19.6144 51.3841L19.6186 51.3841C21.4322 51.382 22.9768 50.0551 23.2648 48.2511L24.9653 37.7029C25.1656 36.4483 26.2405 35.4757 27.502 35.4757C28.7635 35.4757 29.8384 36.4483 30.0387 37.7029L31.7391 48.2511C32.0271 50.0551 33.5717 51.382 35.3853 51.3841L35.3895 51.3841L35.3938 51.3841C37.0823 51.3822 38.5553 50.2281 38.9723 48.5796L39.8029 44.6342C40.5094 41.2785 40.9383 39.3281 41.8448 36.4924Z" fill="url(#paint5_radial_626_6160)" fill-opacity="0.2"/>
<path d="M22.1122 3.99211C25.2428 5.35917 29.761 5.35918 32.8916 3.99212C34.2059 3.4182 35.6007 3.11333 37.0041 3.11324H37.0052C38.3175 3.11332 39.6372 3.37992 40.9056 3.94227C46.4468 6.39891 48.9314 13.5789 46.5178 20.0548L46.5193 20.0555C46.2457 20.6624 45.9639 21.2721 45.6887 21.8843C45.2841 22.7841 44.2996 23.2495 43.3916 22.9699C43.2911 22.9389 43.1912 22.9049 43.0889 22.8808L30.6485 19.9563C28.579 19.4698 26.4249 19.4698 24.3554 19.9563L11.9147 22.8808C11.8124 22.9049 11.7125 22.9389 11.612 22.9699C10.704 23.2495 9.71952 22.7841 9.31507 21.8843C9.03989 21.2721 8.75816 20.6624 8.4846 20.0555L8.48609 20.0548C6.07246 13.5789 8.55716 6.39891 14.0983 3.94227C16.7235 2.77838 19.5686 2.88138 22.1122 3.99211Z" fill="url(#paint6_linear_626_6160)"/>
<defs>
<linearGradient id="paint0_linear_626_6160" x1="27.5012" y1="23.6916" x2="27.5012" y2="33.9216" gradientUnits="userSpaceOnUse">
<stop stop-color="#AAC8E3"/>
<stop offset="1" stop-color="#C8DBED"/>
</linearGradient>
<linearGradient id="paint1_linear_626_6160" x1="15.9938" y1="27.8567" x2="19.4149" y2="27.8567" gradientUnits="userSpaceOnUse">
<stop stop-color="#F1F7FA"/>
<stop offset="1" stop-color="#F0F7FA" stop-opacity="0"/>
</linearGradient>
<linearGradient id="paint2_linear_626_6160" x1="27.5012" y1="23.6916" x2="27.5012" y2="26.6616" gradientUnits="userSpaceOnUse">
<stop stop-color="#065099"/>
<stop offset="1" stop-color="#065099" stop-opacity="0"/>
</linearGradient>
<linearGradient id="paint3_linear_626_6160" x1="40.9048" y1="31.7294" x2="19.5764" y2="15.3262" gradientUnits="userSpaceOnUse">
<stop stop-color="#6AD374"/>
<stop offset="1" stop-color="#BCFBC2"/>
</linearGradient>
<linearGradient id="paint4_linear_626_6160" x1="15.8581" y1="22.749" x2="27.7222" y2="51.2925" gradientUnits="userSpaceOnUse">
<stop stop-color="#E8F2F8"/>
<stop offset="1" stop-color="#CDDFF2"/>
</linearGradient>
<radialGradient id="paint5_radial_626_6160" cx="0" cy="0" r="1" gradientUnits="userSpaceOnUse" gradientTransform="translate(24.0402 27.8397) rotate(71.222) scale(10.7537 13.3139)">
<stop stop-color="white"/>
<stop offset="1" stop-color="#EDF5F8" stop-opacity="0"/>
</radialGradient>
<linearGradient id="paint6_linear_626_6160" x1="14.4178" y1="6.31511" x2="42.945" y2="25.4355" gradientUnits="userSpaceOnUse">
<stop stop-color="#F0F6F9"/>
<stop offset="1" stop-color="#CDDFF2"/>
</linearGradient>
</defs>
</svg>
