<svg width="39" height="41" viewBox="0 0 39 41" fill="none" xmlns="http://www.w3.org/2000/svg">
<path d="M9.96722 7.8732C12.1142 7.8732 13.8546 6.11072 13.8546 3.9366C13.8546 1.76248 12.1142 0 9.96722 0C7.82028 0 6.07983 1.76248 6.07983 3.9366C6.07983 6.11072 7.82028 7.8732 9.96722 7.8732Z" fill="white"/>
<path d="M20.6642 17.6139C17.463 15.7373 14.8363 13.2025 12.6253 10.2206C11.2359 8.24202 7.56268 8.34531 6.07006 10.1584C3.79946 12.3955 1.87287 14.7012 0.344782 17.0083C-0.279886 17.9533 -0.0315389 19.2319 0.901028 19.8645C1.24884 20.1006 1.641 20.2135 2.03063 20.2135C2.6857 20.2135 3.32938 19.8934 3.7209 19.3006C4.39182 18.2888 5.1527 17.2739 5.9953 16.2634C5.96299 18.4017 6.06879 22.2601 6.12201 23.9942C6.13975 24.5716 6.00988 25.1362 5.74506 25.6488C3.64931 29.7015 2.30875 33.5361 0.94791 38.2272C0.614669 39.3723 1.26278 40.574 2.39301 40.9108C2.64896 40.9871 2.90744 41.0128 3.15706 40.9936C4.0174 40.9268 4.78651 40.3334 5.04373 39.4468C6.2994 35.1214 7.51263 31.6191 9.405 27.9109C9.5013 27.9148 9.5976 27.9148 9.69516 27.9103C10.9033 31.5607 12.1121 35.2131 13.3222 38.8636C14.2009 41.5241 18.2777 40.1422 17.3964 37.481C16.0743 33.4899 14.754 29.5007 13.4362 25.5102C13.3595 25.2812 13.1739 24.3843 13.1479 24.0917C12.93 21.6333 12.8508 19.1825 12.8743 16.7286C14.7293 18.5281 16.7863 20.089 19.0715 21.4299C21.3504 22.7695 22.9127 18.9336 20.6642 17.6139Z" fill="white"/>
<path d="M37.6775 17.1708L37.6826 17.1106C38.0153 13.1755 35.1325 10.478 30.7268 10.0843C28.1854 9.85715 26.1039 10.4002 24.3909 11.3758C23.3951 11.9428 23.1897 13.3627 23.8012 14.343L24.2472 15.0578C24.8588 16.0376 26.0856 16.2352 27.1318 15.7671C28.0853 15.3405 29.032 15.1481 29.8993 15.2256C31.3379 15.3542 32.0936 16.0619 32.0065 17.0914L32.004 17.1215C31.8939 18.4233 30.5076 20.1738 27.0051 20.1656L26.8739 20.291C26.8014 20.3602 26.8016 21.3527 26.8737 22.5071L26.9335 23.4486C27.0057 24.6031 27.8765 25.6114 28.8779 25.7008C29.8792 25.7903 30.8086 25.4363 30.9524 24.9105C31.0974 24.3844 31.2145 23.9578 31.2145 23.9578C34.6101 23.4373 37.355 20.985 37.6775 17.1708Z" fill="white"/>
<path d="M27.7386 27.3857C26.5981 27.2838 25.595 28.1349 25.4976 29.2867L25.4153 30.2605C25.3179 31.4123 26.1635 32.4286 27.3036 32.5305L29.0767 32.6889C30.2172 32.7909 31.2208 31.9398 31.3181 30.788L31.4005 29.8142C31.4979 28.6624 30.6518 27.646 29.5117 27.5441L27.7386 27.3857Z" fill="white"/>
</svg>
