<svg width="259" height="50" viewBox="0 0 259 50" fill="none" xmlns="http://www.w3.org/2000/svg">
<g clip-path="url(#clip0_258_552)">
<path d="M21.9567 32.7083H18.2305V28.867H3.92799V32.7083H0.164429V25.2515H2.8741L9.87457 10.0355H12.2454L19.2459 25.2515H21.9555V32.7083H21.9567ZM11.0795 15.6475L6.75081 25.2515H15.445L11.0795 15.6475ZM32.1334 9.77227C34.8186 9.77227 37.1019 10.7201 38.9834 12.6156C40.8655 14.5118 41.8068 16.7896 41.8068 19.4515C41.8068 22.1128 40.8655 24.3854 38.9834 26.2681C37.1019 28.1514 34.8186 29.0928 32.1334 29.0928C29.4488 29.0928 27.1719 28.1509 25.3027 26.2681C23.4334 24.3854 22.4985 22.1128 22.4985 19.4515C22.4985 16.7651 23.4398 14.4797 25.3213 12.597C27.2034 10.7136 29.4745 9.77227 32.134 9.77227H32.1334ZM36.2924 15.1013C35.1254 13.9591 33.739 13.3878 32.1334 13.3878C30.5278 13.3878 29.1479 13.9591 27.9937 15.1013C26.8395 16.2434 26.2621 17.6937 26.2621 19.4515C26.2621 21.2088 26.8395 22.6526 27.9937 23.7825C29.1479 24.9124 30.5278 25.4773 32.1334 25.4773C33.7396 25.4773 35.126 24.906 36.2924 23.7638C37.4589 22.6211 38.0427 21.1837 38.0427 19.4515C38.0427 17.6942 37.4589 16.244 36.2924 15.1013ZM58.4941 2.50336H62.2203C62.2203 4.16024 61.7001 5.3905 60.6585 6.19413C59.6168 6.99777 57.8916 7.39988 55.4829 7.39988H54.5043C52.3218 7.39988 50.6153 7.88253 49.3859 8.84958C48.1564 9.81663 47.5411 11.2412 47.5411 13.1245V14.1791C48.1179 13.0493 48.9968 12.1388 50.1755 11.449C51.3548 10.758 52.6595 10.4131 54.0896 10.4131C56.724 10.4131 58.882 11.2733 60.5634 12.9932C62.2443 14.7126 63.0853 16.8661 63.0853 19.4521C63.0853 22.2138 62.1883 24.5237 60.3943 26.3819C58.5997 28.2402 56.2732 29.1687 53.4125 29.1687C50.652 29.1687 48.3565 28.2402 46.5251 26.3819C44.6932 24.5237 43.7775 22.1134 43.7775 19.1509V14.4056C43.7775 11.1163 44.737 8.59279 46.6569 6.83552C48.5763 5.07826 51.2802 4.19934 54.7679 4.19934C56.2236 4.19934 57.2081 4.08028 57.7225 3.84158C58.2375 3.60347 58.4941 3.15759 58.4941 2.50452V2.50336ZM53.4509 13.8774C51.8447 13.8774 50.459 14.4353 49.292 15.553C48.1249 16.67 47.5417 18.0578 47.5417 19.7147C47.5417 21.3967 48.1127 22.7904 49.254 23.8951C50.396 24.9999 51.7946 25.552 53.4504 25.552C55.0816 25.552 56.4674 24.9999 57.6088 23.8951C58.7507 22.7904 59.3217 21.3967 59.3217 19.7147C59.3217 18.0578 58.7385 16.67 57.5714 15.553C56.4044 14.4353 55.0309 13.8774 53.4504 13.8774H53.4509ZM75.4462 9.80904C78.1063 9.80904 80.3202 10.7446 82.0891 12.6151C83.8581 14.4855 84.7428 16.7646 84.7428 19.4509C84.7428 22.1624 83.8581 24.4537 82.0891 26.3241C80.3202 28.1946 78.1057 29.1302 75.4462 29.1302C74.2167 29.1302 73.0748 28.8477 72.0209 28.2828C70.967 27.7178 70.1266 26.958 69.499 26.0037V35.7962H65.7355V10.0349H68.2947L68.5204 13.4998C69.2232 12.3699 70.189 11.4723 71.4184 10.807C72.6479 10.1417 73.9904 9.80904 75.4462 9.80904ZM79.285 15.1199C78.1308 13.99 76.7509 13.4251 75.1446 13.4251C73.539 13.4251 72.1527 13.9959 70.9862 15.1386C69.8192 16.2807 69.236 17.7188 69.236 19.4509C69.236 21.1831 69.8192 22.6205 70.9862 23.7633C72.1527 24.9054 73.539 25.4767 75.1446 25.4767C76.7509 25.4767 78.1308 24.9118 79.285 23.7819C80.4392 22.652 81.0166 21.2082 81.0166 19.4509C81.0166 17.6937 80.4392 16.2498 79.285 15.1199ZM91.6068 15.7981H97.0267C98.507 15.7981 99.7743 15.9924 100.828 16.3817C101.882 16.771 102.679 17.3044 103.218 17.982C103.758 18.6601 104.14 19.3505 104.366 20.0538C104.592 20.7565 104.705 21.5099 104.705 22.3136C104.705 23.1166 104.592 23.8765 104.366 24.592C104.14 25.3075 103.758 26.0043 103.218 26.6825C102.679 27.3601 101.882 27.8941 100.828 28.2833C99.7743 28.6726 98.507 28.867 97.0267 28.867H87.8432V10.0355H91.6074V15.7981H91.6068ZM110.538 28.8664H106.774V10.0349H110.538V28.8664ZM91.6068 25.3641H97.4402C99.7743 25.3641 100.941 24.3474 100.941 22.3136C100.941 20.3048 99.7743 19.3009 97.4402 19.3009H91.6068V25.3641ZM123.162 9.77169C125.169 9.77169 126.888 10.2362 128.318 11.1654C129.749 12.0945 130.815 13.4 131.518 15.082C131.869 15.8605 132.07 16.771 132.12 17.8121C132.17 18.8545 132.082 19.727 131.856 20.4302H117.517C117.517 22.0369 118.063 23.3115 119.154 24.2529C120.245 25.1949 121.656 25.6652 123.388 25.6652C125.571 25.6652 127.591 25.1131 129.447 24.0084L131.48 26.1928C128.946 28.1263 126.249 29.0928 123.388 29.0928C120.503 29.0928 118.156 28.1888 116.35 26.3808C114.543 24.5727 113.64 22.2628 113.64 19.4509C113.64 16.7144 114.512 14.4167 116.256 12.5584C118 10.7002 120.302 9.77169 123.162 9.77169H123.162ZM123.2 13.1993C121.644 13.1993 120.351 13.6696 119.323 14.6116C118.294 15.553 117.742 16.6893 117.667 18.0199H128.468C128.468 17.3668 128.318 16.7517 128.017 16.1739C127.616 15.2699 126.995 14.548 126.154 14.0087C125.314 13.4689 124.329 13.1993 123.2 13.1993Z" fill="#00ADEF"/>
<path d="M186.992 9.8089C189.652 9.8089 191.866 10.7444 193.635 12.6149C195.404 14.4854 196.288 16.7644 196.288 19.4508C196.288 22.1623 195.404 24.4535 193.635 26.3246C191.866 28.1951 189.652 29.1306 186.992 29.1306C185.763 29.1306 184.621 28.8481 183.567 28.2832C182.513 27.7183 181.673 26.9584 181.045 26.0042V35.7967H177.282V10.0353H179.841L180.067 13.5008C180.769 12.371 181.735 11.4728 182.965 10.8075C184.194 10.1421 185.537 9.80948 186.992 9.80948V9.8089ZM190.831 15.1198C189.677 13.9899 188.297 13.425 186.691 13.425C185.085 13.425 183.699 13.9963 182.532 15.1385C181.365 16.2806 180.782 17.7186 180.782 19.4508C180.782 21.183 181.365 22.6204 182.532 23.7637C183.699 24.9058 185.086 25.4772 186.691 25.4772C188.297 25.4772 189.677 24.9122 190.831 23.7824C191.985 22.6525 192.562 21.2086 192.562 19.4514C192.562 17.6941 191.985 16.2502 190.831 15.1204V15.1198ZM217.38 10.0348V26.4938C217.38 29.3308 216.558 31.6349 214.915 33.4044C213.271 35.1745 211.006 36.0599 208.121 36.0599C204.959 36.0599 202.224 35.0934 199.916 33.1599L202.061 30.8622C204.018 32.0423 206.038 32.6323 208.12 32.6323C209.852 32.6323 211.2 32.1672 212.166 31.2386C213.133 30.3095 213.615 28.9911 213.615 27.2841V25.5519C212.987 26.6065 212.128 27.3909 211.037 27.9056C209.945 28.4204 208.797 28.6777 207.593 28.6777C204.984 28.6777 202.963 27.8741 201.533 26.2674C200.103 24.6607 199.388 22.4506 199.388 19.6393V10.0348H203.152V19.4134C203.152 23.1795 204.821 25.0628 208.158 25.0628C209.864 25.0628 211.207 24.5166 212.185 23.4246C213.164 22.3321 213.653 20.7563 213.653 18.6979V10.0353H217.38V10.0348ZM234.971 28.8662L231.809 23.9697C231.032 22.7896 230.379 21.9988 229.853 21.5973C229.325 21.1958 228.535 20.995 227.482 20.995H225.374V28.8662H221.61V10.0348H225.374V17.3416H227.181C228.26 17.3416 229.056 17.1408 229.571 16.7387C230.085 16.3372 230.731 15.5336 231.509 14.329L234.332 10.0348H238.509L234.671 15.9106C233.441 17.7186 232.425 18.7849 231.622 19.1117C232.601 19.4134 233.705 20.5176 234.934 22.4261L239.15 28.8662H234.971H234.971ZM258.321 28.8662H254.557V16.2117L243.491 28.8662H241.12V10.0348H244.884V22.6898L255.95 10.0348H258.321V28.8662Z" fill="#00ADEF"/>
<path d="M161.548 3.06723H146.116C142.204 3.06723 139.032 6.24089 139.032 10.1558V25.5977C139.032 29.5126 142.204 32.6862 146.116 32.6862H161.548C165.46 32.6862 168.632 29.5126 168.632 25.5977V10.1558C168.632 6.24089 165.46 3.06723 161.548 3.06723Z" fill="url(#paint0_linear_258_552)"/>
<path fill-rule="evenodd" clip-rule="evenodd" d="M148.239 25.7358C148.532 26.5284 148.917 27.1068 149.556 27.1505C151.755 27.3011 151.408 21.5916 153.654 21.5443C155.9 21.5916 155.552 27.3011 157.751 27.1505C158.39 27.1068 158.775 26.529 159.068 25.7358C159.709 24.0037 160.225 22.2686 160.909 20.4851C162.405 16.5836 163.903 11.6918 160.507 9.32578C159.377 8.53849 157.873 8.32664 156.302 9.0153C155.173 9.50962 154.605 10.3973 153.654 10.4586C152.702 10.3973 152.133 9.5102 151.005 9.0153C149.434 8.32664 147.93 8.53849 146.8 9.32578C143.404 11.6912 144.902 16.5836 146.398 20.4851C147.082 22.2686 147.598 24.0037 148.239 25.7358Z" fill="white"/>
<path d="M166.93 10.49C169.825 10.49 172.172 8.14179 172.172 5.24509C172.172 2.34839 169.825 0.000152588 166.93 0.000152588C164.036 0.000152588 161.689 2.34839 161.689 5.24509C161.689 8.14179 164.036 10.49 166.93 10.49Z" fill="#FF829D"/>
<path d="M163.98 4.23158C163.98 4.74341 164.213 5.31419 164.678 5.94391C165.128 6.55145 165.843 7.28038 166.824 8.12954C166.885 8.18207 166.975 8.18207 167.035 8.12954C168.017 7.2798 168.733 6.55145 169.182 5.94391C169.648 5.31419 169.88 4.74341 169.88 4.23158C169.88 3.97246 169.817 3.73493 169.691 3.51899C169.564 3.30305 169.393 3.13147 169.178 3.00541C168.962 2.87877 168.727 2.81573 168.475 2.81573C167.903 2.81573 167.434 3.11921 167.069 3.72559C167.039 3.77578 166.989 3.80379 166.93 3.80379C166.872 3.80379 166.822 3.7752 166.792 3.72559C166.637 3.46705 166.461 3.26278 166.264 3.11221C166.005 2.91495 165.711 2.81573 165.385 2.81573C165.132 2.81573 164.898 2.87935 164.682 3.00541C164.466 3.13205 164.295 3.30305 164.169 3.51899C164.042 3.73493 163.979 3.97246 163.979 4.23158H163.98Z" fill="white"/>
<path d="M39.0721 43.0849C40.1522 43.0849 41.0382 43.4992 41.7316 44.3274L40.9215 45.2051C40.3995 44.656 39.7831 44.3811 39.0721 44.3811C38.4965 44.3811 38.0013 44.5836 37.5872 44.9892C37.1737 45.3942 36.9667 45.9119 36.9667 46.5422C36.9667 47.1719 37.1731 47.6902 37.5872 48.0952C38.0013 48.5002 38.4965 48.7027 39.0721 48.7027C39.7656 48.7027 40.3814 48.4284 40.9215 47.8787L41.7316 48.757C41.0382 49.5852 40.1522 49.9989 39.0721 49.9989C38.1092 49.9989 37.2927 49.6616 36.6225 48.9864C35.9524 48.3111 35.6171 47.4964 35.6171 46.5422C35.6171 45.5874 35.9524 44.7727 36.6225 44.0974C37.2933 43.4222 38.1092 43.0843 39.0721 43.0843V43.0849ZM46.1181 44.4628V49.919H44.7679V44.4628H42.4875V43.166H48.4125V44.4628H46.1181ZM52.5155 43.0714C53.4784 43.0714 54.2972 43.4111 54.9715 44.0916C55.6462 44.7715 55.9839 45.5886 55.9839 46.5434C55.9839 47.4976 55.6462 48.3123 54.9715 48.9875C54.2972 49.6628 53.4784 50.0001 52.5155 50.0001C51.5526 50.0001 50.7361 49.6628 50.0659 48.9875C49.3958 48.3123 49.0604 47.4976 49.0604 46.5434C49.0604 45.5798 49.3976 44.7604 50.0723 44.0852C50.7471 43.4099 51.5613 43.072 52.5155 43.072V43.0714ZM54.0068 44.9828C53.5886 44.5731 53.0911 44.3682 52.5155 44.3682C51.9398 44.3682 51.4447 44.5731 51.0306 44.9828C50.6171 45.3925 50.41 45.9125 50.41 46.5428C50.41 47.1725 50.6165 47.6907 51.0306 48.0958C51.4447 48.5008 51.9398 48.7033 52.5155 48.7033C53.0917 48.7033 53.5886 48.4991 54.0068 48.0894C54.4255 47.6797 54.6343 47.1643 54.6343 46.5428C54.6343 45.9119 54.4255 45.3925 54.0068 44.9828ZM64.6221 49.919H63.2731V45.3808L61.0866 47.8793L58.9001 45.3808V49.919H57.5505V43.166H58.4008L61.0866 46.2451L63.7723 43.166H64.6227V49.919H64.6221ZM73.0048 49.919H72.0868L72.0058 48.6765C71.7538 49.0821 71.4074 49.4042 70.9664 49.6429C70.5255 49.8816 70.0444 50.0007 69.5218 50.0007C68.5682 50.0007 67.7744 49.6651 67.1399 48.9945C66.5053 48.3234 66.1881 47.5063 66.1881 46.5434C66.1881 45.5711 66.5053 44.7487 67.1399 44.0782C67.7744 43.407 68.5682 43.0714 69.5218 43.0714C70.0444 43.0714 70.5255 43.1934 70.9664 43.4362C71.4074 43.679 71.7538 44.0035 72.0058 44.4085L72.0868 43.166H73.0048V49.919ZM68.1588 48.0964C68.5729 48.5014 69.0675 48.7039 69.6437 48.7039C70.2199 48.7039 70.7168 48.4996 71.135 48.0899C71.5538 47.6802 71.7625 47.1649 71.7625 46.5434C71.7625 45.9125 71.5538 45.3931 71.135 44.9834C70.7168 44.5737 70.2199 44.3688 69.6437 44.3688C69.068 44.3688 68.5735 44.5737 68.1588 44.9834C67.7453 45.3931 67.5382 45.9131 67.5382 46.5434C67.5382 47.1731 67.7447 47.6913 68.1588 48.0964ZM77.8637 44.4628V49.919H76.5135V44.4628H74.2331V43.166H80.1581V44.4628H77.8637ZM84.2611 43.0714C85.224 43.0714 86.0429 43.4111 86.7177 44.0916C87.3924 44.7715 87.7301 45.5886 87.7301 46.5434C87.7301 47.4976 87.3924 48.3123 86.7177 48.9875C86.0434 49.6628 85.224 50.0001 84.2611 50.0001C83.2988 50.0001 82.4817 49.6628 81.8116 48.9875C81.1414 48.3123 80.8061 47.4976 80.8061 46.5434C80.8061 45.5798 81.1432 44.7604 81.818 44.0852C82.4928 43.4099 83.3069 43.072 84.2611 43.072V43.0714ZM85.7524 44.9828C85.3342 44.5731 84.8367 44.3682 84.2611 44.3682C83.6855 44.3682 83.1903 44.5731 82.7762 44.9828C82.3621 45.3925 82.1557 45.9125 82.1557 46.5428C82.1557 47.1725 82.3621 47.6907 82.7762 48.0958C83.1903 48.5008 83.6849 48.7033 84.2611 48.7033C84.8373 48.7033 85.3342 48.4991 85.7524 48.0894C86.1712 47.6797 86.38 47.1643 86.38 46.5428C86.38 45.9119 86.1712 45.3925 85.7524 44.9828ZM91.7387 45.1783L89.6332 49.919H88.2031L91.3211 43.166H92.158L95.2753 49.919H93.8587L91.7392 45.1783H91.7387ZM99.1491 43.0714C100.112 43.0714 100.931 43.4111 101.606 44.0916C102.28 44.7715 102.618 45.5886 102.618 46.5434C102.618 47.4976 102.28 48.3123 101.606 48.9875C100.931 49.6628 100.112 50.0001 99.1491 50.0001C98.1868 50.0001 97.3703 49.6628 96.6996 48.9875C96.0295 48.3123 95.6941 47.4976 95.6941 46.5434C95.6941 45.5798 96.0312 44.7604 96.706 44.0852C97.3808 43.4099 98.195 43.072 99.1486 43.072L99.1491 43.0714ZM100.641 44.9828C100.223 44.5731 99.7254 44.3682 99.1491 44.3682C98.5735 44.3682 98.0789 44.5731 97.6642 44.9828C97.2507 45.3925 97.0437 45.9125 97.0437 46.5428C97.0437 47.1725 97.2501 47.6907 97.6642 48.0958C98.0783 48.5008 98.5735 48.7033 99.1491 48.7033C99.7254 48.7033 100.222 48.4991 100.641 48.0894C101.06 47.6797 101.269 47.1643 101.269 46.5428C101.269 45.9119 101.06 45.3925 100.641 44.9828ZM105.534 44.4628V49.919H104.185V43.166H109.314V44.4628H105.534ZM116.724 49.919H115.375V45.3808L111.406 49.919H110.556V43.166H111.905V47.7042L115.874 43.166H116.724V49.919ZM125.053 49.919H123.703V47.5151C123.271 48.1273 122.587 48.4331 121.651 48.4331C119.636 48.4331 118.628 47.3073 118.628 45.0569V43.166H119.978V44.9758C119.978 45.714 120.122 46.2586 120.41 46.6099C120.698 46.9606 121.179 47.1363 121.854 47.1363C123.087 47.1363 123.704 46.4751 123.704 45.1509V43.1654H125.053V49.9184L125.053 49.919ZM130.033 43.0714C130.754 43.0714 131.369 43.2384 131.883 43.5716C132.395 43.9048 132.778 44.3729 133.03 44.9764C133.157 45.2553 133.228 45.5821 133.246 45.9557C133.264 46.3292 133.232 46.642 133.151 46.8941H128.009C128.009 47.4707 128.204 47.9277 128.596 48.265C128.987 48.6024 129.493 48.7716 130.114 48.7716C130.897 48.7716 131.621 48.5738 132.287 48.1775L133.016 48.9607C132.107 49.654 131.14 50.0007 130.114 50.0007C129.079 50.0007 128.238 49.6768 127.59 49.0284C126.942 48.38 126.619 47.5518 126.619 46.5434C126.619 45.5617 126.931 44.7377 127.556 44.0718C128.182 43.4053 129.007 43.072 130.033 43.072V43.0714ZM130.047 44.3005C129.489 44.3005 129.026 44.4692 128.657 44.8071C128.288 45.1444 128.09 45.5518 128.063 46.0292H131.937C131.937 45.7952 131.883 45.5746 131.775 45.3674C131.631 45.0435 131.408 44.7849 131.107 44.5912C130.806 44.3974 130.453 44.3011 130.047 44.3011L130.047 44.3005ZM137.956 43.0849C139.036 43.0849 139.922 43.4992 140.615 44.3274L139.805 45.2051C139.283 44.656 138.667 44.3811 137.956 44.3811C137.38 44.3811 136.885 44.5836 136.471 44.9892C136.057 45.3942 135.851 45.9119 135.851 46.5422C135.851 47.1719 136.057 47.6902 136.471 48.0952C136.885 48.5002 137.38 48.7027 137.956 48.7027C138.649 48.7027 139.265 48.4284 139.805 47.8787L140.615 48.757C139.922 49.5852 139.036 49.9989 137.956 49.9989C136.994 49.9989 136.176 49.6616 135.506 48.9864C134.836 48.3111 134.501 47.4964 134.501 46.5422C134.501 45.5874 134.836 44.7727 135.506 44.0974C136.177 43.4222 136.994 43.0843 137.956 43.0843V43.0849ZM146.973 49.919L145.838 48.1635C145.559 47.7404 145.326 47.4567 145.137 47.3126C144.948 47.1684 144.664 47.096 144.286 47.096H143.53V49.919H142.181V43.166H143.53V45.7864H144.178C144.565 45.7864 144.851 45.714 145.035 45.5705C145.219 45.4263 145.452 45.138 145.73 44.7056L146.742 43.166H148.24L146.864 45.2728C146.423 45.9212 146.059 46.3041 145.771 46.4214C146.122 46.5294 146.517 46.9256 146.959 47.6096L148.47 49.919H146.972H146.973ZM155.895 49.919H154.977L154.896 48.6765C154.644 49.0821 154.297 49.4042 153.856 49.6429C153.416 49.8816 152.934 50.0007 152.412 50.0007C151.458 50.0007 150.664 49.6651 150.03 48.9945C149.395 48.3234 149.079 47.5063 149.079 46.5434C149.079 45.5711 149.395 44.7487 150.03 44.0782C150.664 43.407 151.458 43.0714 152.412 43.0714C152.934 43.0714 153.416 43.1934 153.856 43.4362C154.297 43.679 154.644 44.0035 154.896 44.4085L154.977 43.166H155.895V49.919ZM151.049 48.0964C151.463 48.5014 151.958 48.7039 152.534 48.7039C153.11 48.7039 153.607 48.4996 154.025 48.0899C154.444 47.6802 154.653 47.1649 154.653 46.5434C154.653 45.9125 154.444 45.3931 154.025 44.9834C153.607 44.5737 153.109 44.3688 152.534 44.3688C151.958 44.3688 151.463 44.5737 151.049 44.9834C150.635 45.3931 150.428 45.9131 150.428 46.5434C150.428 47.1731 150.635 47.6913 151.049 48.0964ZM163.467 49.919H162.117V47.839H160.943C160.601 47.8483 160.34 47.9248 160.16 48.0689C159.98 48.2131 159.751 48.4961 159.472 48.9198L158.797 49.919H157.326L158.109 48.7307C158.136 48.6946 158.192 48.6111 158.277 48.481C158.362 48.3502 158.424 48.2621 158.459 48.2178C158.495 48.1722 158.55 48.1051 158.621 48.0152C158.694 47.9248 158.758 47.8524 158.817 47.7987C158.876 47.745 158.941 47.6954 159.013 47.6505C158.527 47.5157 158.138 47.2542 157.845 46.8673C157.553 46.4797 157.407 46.0525 157.407 45.5845C157.407 44.9092 157.638 44.3373 158.102 43.8687C158.565 43.4006 159.291 43.1666 160.282 43.1666H163.467V49.9196V49.919ZM162.117 44.4628H160.146C159.696 44.4628 159.353 44.562 159.114 44.7598C158.876 44.9577 158.757 45.2326 158.757 45.5839C158.757 45.9259 158.876 46.1961 159.114 46.3945C159.353 46.5924 159.696 46.6916 160.146 46.6916H162.117V44.4628ZM174.508 49.919L173.374 48.1635C173.095 47.7404 172.861 47.4567 172.672 47.3126C172.484 47.1684 172.2 47.096 171.822 47.096H171.066V49.919H169.717V43.166H171.066V45.7864H171.714C172.101 45.7864 172.387 45.714 172.571 45.5705C172.755 45.4263 172.987 45.138 173.266 44.7056L174.278 43.166H175.776L174.399 45.2728C173.958 45.9212 173.595 46.3041 173.306 46.4214C173.658 46.5294 174.053 46.9256 174.494 47.6096L176.006 49.919H174.508H174.508ZM179.961 45.1783L177.856 49.919H176.426L179.543 43.166H180.38L183.498 49.919H182.081L179.962 45.1783H179.961ZM190.759 49.919H189.41V45.3808L185.442 49.919H184.591V43.166H185.941V47.7042L189.909 43.166H190.759V49.919H190.759ZM198.979 49.919H197.629V47.1509H194.079V49.919H192.73V43.166H194.079V45.8541H197.629V43.166H198.979V49.919ZM207.118 49.919H205.768V45.3808L201.8 49.919H200.95V43.166H202.299V47.7042L206.267 43.166H207.117V49.919H207.118ZM213.948 49.919L212.814 48.1635C212.535 47.7404 212.301 47.4567 212.112 47.3126C211.923 47.1684 211.64 47.096 211.262 47.096H210.506V49.919H209.156V43.166H210.506V45.7864H211.154C211.541 45.7864 211.826 45.714 212.011 45.5705C212.195 45.4263 212.427 45.138 212.706 44.7056L213.718 43.166H215.216L213.839 45.2728C213.398 45.9212 213.034 46.3041 212.746 46.4214C213.097 46.5294 213.492 46.9256 213.934 47.6096L215.446 49.919H213.947H213.948ZM222.87 49.919H221.952L221.872 48.6765C221.62 49.0821 221.273 49.4042 220.832 49.6429C220.391 49.8816 219.91 50.0007 219.388 50.0007C218.434 50.0007 217.64 49.6651 217.006 48.9945C216.371 48.3234 216.054 47.5063 216.054 46.5434C216.054 45.5711 216.371 44.7487 217.006 44.0782C217.64 43.407 218.434 43.0714 219.388 43.0714C219.91 43.0714 220.391 43.1934 220.832 43.4362C221.273 43.679 221.62 44.0035 221.872 44.4085L221.952 43.166H222.87V49.919ZM218.024 48.0964C218.438 48.5014 218.933 48.7039 219.509 48.7039C220.085 48.7039 220.582 48.4996 221 48.0899C221.419 47.6802 221.628 47.1649 221.628 46.5434C221.628 45.9125 221.419 45.3931 221 44.9834C220.582 44.5737 220.085 44.3688 219.509 44.3688C218.933 44.3688 218.438 44.5737 218.024 44.9834C217.611 45.3931 217.404 45.9131 217.404 46.5434C217.404 47.1731 217.611 47.6913 218.024 48.0964Z" fill="#1E2326"/>
</g>
<defs>
<linearGradient id="paint0_linear_258_552" x1="160.854" y1="10.6886" x2="146.648" y2="27.1904" gradientUnits="userSpaceOnUse">
<stop stop-color="#00ADEF"/>
<stop offset="1" stop-color="#6AD474"/>
</linearGradient>
<clipPath id="clip0_258_552">
<rect width="258.156" height="50" fill="white" transform="translate(0.165039)"/>
</clipPath>
</defs>
</svg>
