<svg width="64" height="64" viewBox="0 0 64 64" fill="none" xmlns="http://www.w3.org/2000/svg">
<rect width="64" height="64" rx="32" fill="#1E2326"/>
<path d="M40.7361 39.5586L36.0205 34.8477C37.0411 33.6172 37.6041 32.0352 37.6041 30.3125C37.6041 26.3047 34.2962 23 30.2845 23C26.2375 23 23 26.3047 23 30.3125C23 34.3555 26.2727 37.625 30.2845 37.625C31.9736 37.625 33.5572 37.0625 34.824 36.043L39.5396 40.7539C39.7155 40.9297 39.9267 41 40.173 41C40.3842 41 40.5953 40.9297 40.7361 40.7539C41.088 40.4375 41.088 39.9102 40.7361 39.5586ZM24.6891 30.3125C24.6891 27.2188 27.1877 24.6875 30.3196 24.6875C33.4164 24.6875 35.9501 27.2188 35.9501 30.3125C35.9501 33.4414 33.4164 35.9375 30.3196 35.9375C27.1877 35.9375 24.6891 33.4414 24.6891 30.3125Z" fill="white"/>
</svg>
