<svg width="266" height="34" viewBox="0 0 266 34" fill="none" xmlns="http://www.w3.org/2000/svg">
<g clip-path="url(#clip0_257_5108)">
<path d="M181.995 14.132L173.989 1.91696L176.804 0L184.256 11.3383L191.679 0L194.465 1.88724L186.458 14.132H181.995Z" fill="#04394E"/>
<path d="M181.995 19.8828L173.989 32.083L176.804 33.9999L184.256 22.6765L191.679 33.9999L194.465 32.1127L186.458 19.8828H181.995Z" fill="#04394E"/>
<path d="M187.042 14.7266L199.03 6.56836L200.911 9.45123L189.783 17.0299L200.911 24.6086L199.059 27.432L187.042 19.2738V14.7266Z" fill="#04394E"/>
<path d="M181.397 14.7266L169.424 6.56836L167.542 9.45123L178.656 17.0299L167.542 24.6086L169.395 27.432L181.397 19.2738V14.7266Z" fill="#04394E"/>
<path d="M216.88 14.4293H215.685V12.1854V10.5656V9.07963V3.28418H216.88V14.4293ZM215.699 10.6102C215.749 9.84543 215.544 9.08583 215.116 8.45551C214.901 8.20621 214.633 8.0108 214.332 7.8845C214.031 7.7582 213.705 7.70443 213.38 7.72736C213.051 7.70088 212.72 7.7529 212.414 7.87928C212.107 8.00566 211.834 8.20294 211.616 8.45551C211.187 9.08583 210.982 9.84543 211.032 10.6102C210.982 11.3797 211.187 12.1439 211.616 12.7798C211.836 13.0297 212.11 13.2251 212.415 13.3513C212.721 13.4774 213.051 13.531 213.38 13.508C213.706 13.5279 214.032 13.4713 214.333 13.3425C214.634 13.2137 214.902 13.0161 215.116 12.7649C215.542 12.1336 215.747 11.3748 215.699 10.6102ZM216.005 10.6102C216.009 11.1081 215.97 11.6054 215.889 12.0962C215.811 12.5431 215.653 12.9715 215.422 13.3594C215.199 13.7304 214.881 14.0333 214.503 14.2361C214.05 14.4637 213.55 14.5759 213.045 14.563C212.611 14.565 212.183 14.4686 211.791 14.2807C211.399 14.1019 211.055 13.8322 210.784 13.4931C210.484 13.1191 210.257 12.6905 210.113 12.23C209.948 11.6967 209.869 11.1396 209.88 10.5805C209.861 10.0182 209.93 9.45641 210.084 8.91617C210.224 8.46333 210.452 8.04386 210.755 7.68278C211.025 7.34369 211.37 7.07393 211.761 6.89519C212.152 6.70228 212.582 6.60557 213.016 6.61285C213.521 6.59104 214.024 6.7037 214.474 6.93977C214.851 7.13667 215.169 7.43464 215.393 7.80166C215.624 8.18954 215.782 8.61787 215.86 9.06477C215.954 9.57429 216.003 10.0916 216.005 10.6102Z" fill="#04394E"/>
<path d="M221.475 5.94402H222.933V4.45801H221.475V5.94402ZM222.86 13.8348V9.16867C222.895 8.54141 222.703 7.92293 222.32 7.43004C222.103 7.22314 221.845 7.06475 221.564 6.96497C221.282 6.86519 220.984 6.8262 220.687 6.85049H218.762V8.02444H221.445C221.506 7.99885 221.574 7.99885 221.635 8.02444C221.682 8.07169 221.708 8.13583 221.708 8.20276C221.717 8.31652 221.717 8.43079 221.708 8.54455V13.8793L222.86 13.8348ZM218.762 14.4292H225.806V13.2552H218.762V14.4292Z" fill="#04394E"/>
<path d="M227.629 10.6101C227.579 11.3795 227.785 12.1438 228.213 12.7797C228.433 13.0296 228.707 13.225 229.013 13.3512C229.318 13.4773 229.648 13.5309 229.977 13.5078C230.302 13.5308 230.628 13.477 230.929 13.3507C231.23 13.2244 231.498 13.029 231.713 12.7797C232.147 12.1469 232.354 11.3803 232.296 10.6101C232.354 9.84459 232.148 9.08258 231.713 8.45539C231.498 8.2061 231.23 8.01069 230.929 7.88439C230.628 7.75809 230.302 7.70431 229.977 7.72725C229.648 7.70077 229.317 7.75278 229.011 7.87916C228.704 8.00554 228.431 8.20282 228.213 8.45539C227.785 9.08572 227.579 9.84531 227.629 10.6101ZM226.448 10.6101C226.438 10.0353 226.522 9.4629 226.696 8.91606C226.831 8.45961 227.054 8.03523 227.352 7.6678C227.623 7.32871 227.967 7.05896 228.359 6.88022C228.754 6.68609 229.189 6.58937 229.627 6.59787C230.133 6.57606 230.636 6.68873 231.086 6.9248C231.463 7.12231 231.78 7.42015 232.005 7.78669C232.236 8.17998 232.394 8.61316 232.471 9.06466C232.571 9.55333 232.62 10.0515 232.617 10.5507C232.618 11.049 232.574 11.5464 232.486 12.0367C232.41 12.4863 232.246 12.9159 232.005 13.2998C231.785 13.6743 231.467 13.9782 231.086 14.1765C230.633 14.4047 230.132 14.5169 229.627 14.5035C229.189 14.5047 228.756 14.4084 228.359 14.2211C227.967 14.0424 227.623 13.7726 227.352 13.4335C227.054 13.0661 226.831 12.6417 226.696 12.1853C226.534 11.6765 226.45 11.1451 226.448 10.6101ZM232.282 12.2001V10.7141V9.09438V6.79106H233.478V14.979C233.535 15.6224 233.353 16.2644 232.967 16.7771C232.753 16.9798 232.5 17.1347 232.223 17.2319C231.947 17.3291 231.654 17.3666 231.363 17.3418H227.192V16.1084H232.019C232.085 16.1082 232.148 16.0815 232.194 16.0341C232.213 15.9711 232.213 15.9038 232.194 15.8409C232.203 15.7371 232.203 15.6326 232.194 15.5288L232.282 12.2001Z" fill="#04394E"/>
<path d="M237.94 5.94402H239.399V4.45801H237.94V5.94402ZM239.326 13.8348V9.16867C239.36 8.54141 239.168 7.92293 238.786 7.43004C238.568 7.22314 238.31 7.06475 238.029 6.96497C237.748 6.86519 237.449 6.8262 237.153 6.85049H235.155V8.02444H237.838C237.899 8.00173 237.966 8.00173 238.028 8.02444C238.049 8.08191 238.049 8.1453 238.028 8.20276C238.036 8.31652 238.036 8.43079 238.028 8.54455V13.8793L239.326 13.8348ZM235.155 14.3846H242.199V13.2552H235.155V14.3846Z" fill="#04394E"/>
<path d="M248.791 6.79105H241.732V7.97986H248.791V6.79105ZM244.066 4.45801V12.0664C244.011 12.7095 244.193 13.3504 244.576 13.8645C244.792 14.0691 245.048 14.2251 245.326 14.3224C245.605 14.4197 245.901 14.4561 246.195 14.4292H248.791V13.2106H245.524C245.46 13.2044 245.399 13.1785 245.349 13.1363C245.338 13.0774 245.338 13.0169 245.349 12.958C245.34 12.8443 245.34 12.73 245.349 12.6162V4.45801H244.066Z" fill="#04394E"/>
<path d="M256.156 9.67389H255.339H254.551H253.735C253.293 9.68985 252.854 9.74454 252.422 9.83735C252.027 9.91704 251.644 10.0521 251.285 10.2386C250.963 10.4111 250.688 10.6611 250.483 10.9667C250.267 11.3068 250.16 11.7065 250.176 12.1109C250.154 12.7215 250.363 13.3175 250.76 13.7753C250.987 14.0036 251.259 14.18 251.558 14.2928C251.857 14.4055 252.177 14.452 252.495 14.4291C253.109 14.4462 253.719 14.3349 254.289 14.1022C254.721 13.9104 255.102 13.6147 255.397 13.2403C255.67 12.8969 255.865 12.4959 255.966 12.0664C256.066 11.6329 256.115 11.189 256.112 10.7438H255.529C255.528 11.053 255.498 11.3615 255.441 11.6651C255.375 11.9718 255.246 12.2606 255.062 12.5122C254.847 12.7724 254.578 12.9805 254.274 13.1214C253.857 13.2906 253.411 13.3715 252.962 13.3592C252.556 13.3814 252.152 13.2888 251.795 13.0917C251.649 12.9788 251.534 12.8289 251.463 12.6568C251.391 12.4847 251.365 12.2965 251.387 12.1109C251.38 11.8848 251.441 11.6619 251.562 11.472C251.703 11.2939 251.883 11.1515 252.087 11.0559C252.331 10.9565 252.585 10.8867 252.845 10.8478C253.144 10.796 253.446 10.7613 253.749 10.7438H254.493H255.281H255.908H256.156V9.67389ZM255.529 9.67389V12.6459C255.512 12.9082 255.512 13.1713 255.529 13.4335C255.548 13.6206 255.603 13.8021 255.689 13.9685C255.775 14.109 255.903 14.2182 256.054 14.2805C256.276 14.3483 256.507 14.3785 256.739 14.3697H257.162V13.2106H256.681V9.95623C256.681 9.50343 256.618 9.05293 256.491 8.61882C256.389 8.23121 256.205 7.87109 255.952 7.56375C255.7 7.26464 255.379 7.03469 255.018 6.89504C254.136 6.54801 253.159 6.54801 252.276 6.89504C251.903 7.04302 251.564 7.27106 251.285 7.56375C251.029 7.82613 250.821 8.13315 250.672 8.47021C250.543 8.78605 250.474 9.12384 250.468 9.46584H251.664C251.662 9.2328 251.717 9.00291 251.824 8.79714C251.934 8.59959 252.083 8.42752 252.262 8.29189C252.45 8.14539 252.662 8.03464 252.889 7.96497C253.125 7.88825 253.371 7.84818 253.618 7.84609C253.867 7.82946 254.117 7.86432 254.353 7.9486C254.588 8.03287 254.805 8.1648 254.989 8.33647C255.171 8.51711 255.313 8.73504 255.406 8.97585C255.499 9.21665 255.541 9.47484 255.529 9.73333V9.67389Z" fill="#04394E"/>
<path d="M263.083 13.8796V5.64705C263.126 4.99568 262.922 4.35233 262.514 3.84898C262.3 3.64706 262.046 3.49263 261.77 3.39544C261.494 3.29826 261.201 3.26041 260.91 3.28429H258.591V4.45824H261.508C261.561 4.44743 261.616 4.44743 261.669 4.45824C261.693 4.48337 261.713 4.51358 261.725 4.54687C261.738 4.58017 261.743 4.6158 261.741 4.65142C261.75 4.76022 261.75 4.86955 261.741 4.97835V13.7458L263.083 13.8796ZM258.956 14.4294H266V13.2554H258.956V14.4294Z" fill="#04394E"/>
<path d="M215.845 23.0479H215.028L214.241 23.1222H213.424C212.984 23.1407 212.545 23.1903 212.112 23.2708C211.708 23.3459 211.319 23.4863 210.959 23.6869C210.638 23.8589 210.362 24.109 210.157 24.415C209.954 24.7597 209.852 25.1571 209.866 25.5593C209.838 26.1705 210.048 26.7682 210.449 27.2236C210.675 27.4481 210.946 27.6212 211.242 27.7313C211.539 27.8415 211.855 27.8862 212.17 27.8626C212.789 27.8852 213.405 27.7738 213.978 27.5357C214.411 27.3518 214.792 27.0607 215.087 26.6886C215.354 26.3439 215.544 25.9429 215.641 25.5147C215.745 25.0818 215.799 24.6379 215.801 24.1921H215.218C215.219 24.5022 215.185 24.8114 215.116 25.1135C215.058 25.4155 214.933 25.7001 214.751 25.9456C214.544 26.2141 214.273 26.424 213.964 26.5549C213.549 26.7314 213.101 26.8126 212.651 26.7927C212.241 26.8169 211.832 26.7242 211.47 26.5252C211.326 26.4136 211.213 26.2661 211.141 26.0969C211.07 25.9276 211.042 25.7425 211.062 25.5593C211.053 25.3307 211.12 25.1058 211.251 24.9203C211.384 24.7395 211.559 24.5962 211.762 24.5042C212.004 24.3969 212.259 24.322 212.52 24.2813C212.825 24.2354 213.131 24.2057 213.439 24.1921H214.183H214.97H215.597H215.845V23.0479ZM215.218 23.0479V26.0199C215.218 26.332 215.218 26.5846 215.218 26.7927C215.238 26.9797 215.292 27.1613 215.378 27.3276C215.459 27.4727 215.589 27.5834 215.743 27.6397C215.963 27.7194 216.196 27.7548 216.429 27.7437H216.866V26.5995H216.385V23.3451C216.389 22.8882 216.33 22.433 216.21 21.9928C216.1 21.6129 215.916 21.2593 215.67 20.9526C215.413 20.6566 215.094 20.423 214.737 20.2691C214.305 20.0984 213.844 20.0175 213.38 20.0313C212.907 20.0238 212.436 20.1095 211.995 20.2839C211.623 20.4427 211.286 20.6751 211.003 20.9675C210.743 21.226 210.535 21.534 210.391 21.874C210.255 22.1876 210.186 22.5268 210.186 22.8696H211.382C211.381 22.6319 211.436 22.3975 211.543 22.186C211.66 21.9942 211.808 21.8235 211.98 21.6808C212.169 21.539 212.382 21.4332 212.607 21.3687C212.838 21.2919 213.079 21.2518 213.322 21.2498C213.828 21.2149 214.326 21.3859 214.708 21.7253C214.875 21.9109 215.004 22.1289 215.087 22.3663C215.169 22.6038 215.204 22.8558 215.189 23.1073L215.218 23.0479Z" fill="#04394E"/>
<path d="M219.243 23.9994C219.186 24.7695 219.392 25.5361 219.827 26.1689C220.047 26.415 220.318 26.607 220.621 26.7305C220.925 26.8541 221.251 26.9059 221.577 26.8822C221.903 26.9082 222.23 26.8573 222.534 26.7336C222.837 26.61 223.109 26.4167 223.327 26.1689C223.762 25.5361 223.968 24.7695 223.91 23.9994C223.961 23.2346 223.755 22.475 223.327 21.8446C222.86 21.3764 222.232 21.1139 221.577 21.1139C220.922 21.1139 220.293 21.3764 219.827 21.8446C219.392 22.4718 219.186 23.2338 219.243 23.9994ZM218.062 23.9994C218.052 23.4403 218.131 22.8834 218.295 22.3499C218.436 21.8926 218.664 21.4682 218.966 21.1016C219.235 20.7634 219.574 20.4894 219.958 20.2992C220.393 20.1082 220.862 20.0098 221.336 20.0098C221.81 20.0098 222.279 20.1082 222.714 20.2992C223.087 20.5102 223.402 20.8113 223.633 21.1759C223.862 21.565 224.02 21.9929 224.1 22.439C224.187 22.9294 224.231 23.4267 224.231 23.9251C224.229 24.4227 224.19 24.9195 224.114 25.4111C224.039 25.8607 223.875 26.2903 223.633 26.6742C223.402 27.0388 223.087 27.3399 222.714 27.5509C222.279 27.7419 221.81 27.8403 221.336 27.8403C220.862 27.8403 220.393 27.7419 219.958 27.5509C219.573 27.368 219.234 27.0987 218.966 26.7633C218.664 26.3967 218.436 25.9724 218.295 25.5151C218.145 25.0243 218.066 24.5135 218.062 23.9994ZM223.896 25.5894V24.1034V22.4836V20.1803H225.092V28.3682C225.144 29.0065 224.962 29.642 224.581 30.1515C224.369 30.3573 224.116 30.5143 223.839 30.6117C223.563 30.7091 223.268 30.7448 222.977 30.7161H218.762V29.4976H223.589C223.654 29.4914 223.715 29.4655 223.764 29.4233C223.773 29.3592 223.773 29.2942 223.764 29.2301C223.764 29.1558 223.764 29.0518 223.764 28.9181L223.896 25.5894Z" fill="#04394E"/>
<path d="M232.165 25.2623C232.073 25.7638 231.803 26.2133 231.406 26.5254C230.98 26.8265 230.466 26.973 229.948 26.9414C229.622 26.9652 229.296 26.9133 228.992 26.7897C228.689 26.6662 228.418 26.4742 228.198 26.2282C227.77 25.5923 227.564 24.828 227.615 24.0586C227.564 23.2938 227.77 22.5342 228.198 21.9039C228.415 21.6534 228.686 21.4574 228.989 21.3311C229.293 21.2047 229.621 21.1516 229.948 21.1757C230.275 21.1481 230.605 21.1996 230.909 21.3261C231.213 21.4527 231.483 21.6506 231.698 21.9039C232.133 22.5311 232.339 23.2931 232.281 24.0586H233.463C233.539 22.9824 233.204 21.9179 232.529 21.0866C231.834 20.409 230.91 20.0308 229.948 20.0308C228.986 20.0308 228.061 20.409 227.367 21.0866C226.692 21.9179 226.357 22.9824 226.433 24.0586C226.353 25.1353 226.687 26.2016 227.367 27.0306C227.695 27.3884 228.096 27.6683 228.542 27.8506C228.988 28.0329 229.468 28.1132 229.948 28.0857C230.753 28.1215 231.544 27.8633 232.179 27.3575C232.798 26.8206 233.211 26.0787 233.346 25.2623H232.165ZM227.119 24.3855H233.477V24.0586L232.748 23.3453H227.119V24.3855Z" fill="#04394E"/>
<path d="M235.155 27.8182H236.35V20.1801H235.155V27.8182ZM236.117 23.3602L236.35 24.6976C236.339 24.0916 236.407 23.4867 236.555 22.8995C236.67 22.5052 236.858 22.137 237.109 21.8147C237.309 21.5661 237.571 21.3763 237.867 21.2649C238.138 21.1653 238.425 21.115 238.713 21.1163C239.079 21.0989 239.444 21.1702 239.778 21.3243C240.067 21.4491 240.315 21.6553 240.492 21.9187C240.69 22.2083 240.824 22.5377 240.886 22.8846C240.964 23.3059 241.004 23.7338 241.003 24.1626V27.8925H242.199V23.8803C242.206 23.3538 242.142 22.8288 242.009 22.3199C241.893 21.8796 241.695 21.466 241.426 21.1014C241.171 20.7647 240.841 20.4947 240.463 20.3138C240.038 20.1165 239.574 20.0199 239.107 20.0315C238.707 20.0038 238.307 20.0637 237.932 20.2073C237.557 20.3509 237.217 20.5747 236.934 20.8636C236.392 21.5488 236.103 22.4059 236.117 23.2859V23.3602Z" fill="#04394E"/>
<path d="M250.599 24.9351C250.487 25.7875 250.091 26.5745 249.476 27.1641C248.824 27.7195 247.992 28.0058 247.143 27.9666C246.665 27.9939 246.187 27.9135 245.744 27.7311C245.3 27.5488 244.901 27.2689 244.576 26.9115C243.897 26.0825 243.562 25.0162 243.643 23.9395C243.567 22.8633 243.901 21.7987 244.576 20.9674C244.903 20.6125 245.302 20.3343 245.745 20.1521C246.189 19.9699 246.666 19.8881 247.143 19.9124C247.974 19.9186 248.773 20.2359 249.389 20.804C250.01 21.3554 250.418 22.1139 250.541 22.9438H249.389C249.315 22.4103 249.05 21.9233 248.645 21.5767C248.227 21.2532 247.711 21.0901 247.187 21.116C246.862 21.092 246.536 21.1452 246.235 21.2716C245.933 21.398 245.665 21.594 245.451 21.8442C245.016 22.4714 244.81 23.2334 244.868 23.9989C244.81 24.7691 245.017 25.5357 245.451 26.1685C245.668 26.4142 245.937 26.6062 246.238 26.7298C246.539 26.8534 246.863 26.9054 247.187 26.8818C247.741 26.9119 248.287 26.7437 248.733 26.4063C249.137 26.0133 249.39 25.4864 249.447 24.9202L250.599 24.9351Z" fill="#04394E"/>
<path d="M255.091 27.1199L254.391 28.8882C254.337 29.0652 254.253 29.2311 254.143 29.3786C254.101 29.42 254.05 29.452 253.995 29.4725C253.94 29.493 253.881 29.5015 253.822 29.4975H251.824V30.716H253.662C253.956 30.7322 254.25 30.6814 254.523 30.5674C254.726 30.4514 254.905 30.2947 255.048 30.1067C255.209 29.8817 255.332 29.6305 255.412 29.3637C255.514 29.0665 255.646 28.7248 255.791 28.3533L256.287 27.1199H255.091ZM254.858 27.8183H256.025L259.087 20.1802H257.891L254.858 27.8183ZM254.625 27.8183H255.762L252.743 20.1802H251.547L254.625 27.8183Z" fill="#04394E"/>
<path d="M9.23176 27.536H12.2944L20.549 7.01416H17.3259L9.23176 27.536ZM8.25462 27.536H11.3173L3.22309 7.01416H0L8.25462 27.536Z" fill="#04394E"/>
<path d="M30.9039 4.82969H34.8124V0.847168H30.9476L30.9039 4.82969ZM34.6083 26.05V13.3743C34.7514 11.633 34.2289 9.90276 33.1498 8.54472C32.558 8.00704 31.8647 7.59796 31.1125 7.34246C30.3602 7.08696 29.5647 6.99041 28.7746 7.05871H23.4076V10.2982H29.8538L30.6268 10.4022C30.8036 10.4226 30.9708 10.4949 31.1081 10.6103C31.2417 10.7394 31.3247 10.9138 31.3414 11.1007C31.3414 11.3236 31.3414 11.6208 31.3414 12.0071V26.1243L34.6083 26.05ZM23.4076 27.536H42.2941V24.3708H23.3347L23.4076 27.536Z" fill="#04394E"/>
<path d="M58.7741 7.01412H39.8147V10.1645H58.7741V7.01412ZM46.0713 0.847168V21.1758C45.9378 22.9206 46.4591 24.6519 47.5297 26.0202C48.1152 26.5679 48.8076 26.9833 49.5616 27.2394C50.3155 27.4955 51.1141 27.5864 51.9049 27.5063H58.7741V24.2519H50.8257C50.5538 24.271 50.2809 24.271 50.009 24.2519C49.834 24.242 49.6683 24.1681 49.5423 24.0438C49.4234 23.9076 49.3516 23.7353 49.3381 23.5535C49.3194 23.2516 49.3194 22.9488 49.3381 22.647V0.847168H46.0713Z" fill="#04394E"/>
<path d="M77.996 14.7262L75.8375 14.86C75.1958 14.86 74.4958 14.9789 73.7228 15.0234L71.5352 15.1869C70.3502 15.2454 69.1708 15.3894 68.0059 15.6179C66.9367 15.826 65.9043 16.1967 64.9432 16.7175C64.0503 17.1577 63.2823 17.8226 62.7118 18.6493C62.1432 19.573 61.8635 20.6509 61.9097 21.7402C61.8424 23.3789 62.4078 24.9793 63.4848 26.1983C64.0888 26.8077 64.8139 27.2783 65.6114 27.5782C66.4089 27.8781 67.2602 28.0004 68.1079 27.9369C69.7658 27.9938 71.4165 27.6898 72.9499 27.0453C74.0679 26.5661 75.0581 25.823 75.8391 24.8775C76.62 23.9319 77.1694 22.8108 77.4418 21.6065C77.7206 20.4389 77.8626 19.2417 77.8647 18.0401H76.3042C76.3024 18.8744 76.2144 19.7062 76.0417 20.5217C75.8738 21.341 75.5302 22.1123 75.0354 22.7804C74.4795 23.5044 73.7517 24.0721 72.9207 24.4299C71.8086 24.9007 70.6092 25.1188 69.4059 25.0689C68.3064 25.1357 67.2104 24.8887 66.2412 24.3556C65.8466 24.0579 65.5363 23.6592 65.3416 23.1999C65.147 22.7406 65.0749 22.237 65.1328 21.7402C65.1116 21.1262 65.2855 20.5217 65.6286 20.0165C66.0085 19.5225 66.5124 19.1426 67.0871 18.9168C67.7309 18.6196 68.4138 18.4194 69.1142 18.3224C69.8913 18.1879 70.6753 18.0986 71.4623 18.0549C72.0602 18.0549 72.7311 17.936 73.4895 17.8915L75.6042 17.728L77.2959 17.5943H77.9814L77.996 14.7262ZM76.3042 14.86V22.8696C76.2958 23.5695 76.3299 24.2693 76.4063 24.9649C76.4447 25.4847 76.5887 25.9908 76.8293 26.4509C77.0511 26.8438 77.4025 27.1439 77.821 27.2979C78.4076 27.4996 79.0254 27.5903 79.644 27.5654H80.8253V24.2516H79.5273V15.499C79.539 14.2779 79.3769 13.0616 79.046 11.888C78.7515 10.8608 78.2553 9.90536 77.5876 9.07939C76.9003 8.28193 76.042 7.65649 75.0792 7.2516C73.9264 6.79728 72.6981 6.57523 71.4623 6.59775C70.194 6.57448 68.9341 6.81202 67.7579 7.29618C66.7461 7.7073 65.8242 8.3184 65.0453 9.09425C64.3533 9.80443 63.7991 10.6414 63.4119 11.561C63.0461 12.4041 62.8525 13.3142 62.8431 14.2359H66.0662C66.0601 13.5971 66.2159 12.9676 66.5183 12.4081C66.8098 11.8789 67.2073 11.4181 67.685 11.0558C68.1914 10.6726 68.7587 10.381 69.3622 10.1939C69.9934 9.98568 70.653 9.88036 71.3165 9.88184C71.9872 9.83665 72.66 9.92766 73.2959 10.1496C73.9318 10.3715 74.5182 10.72 75.0208 11.1747C75.4685 11.6684 75.8131 12.2496 76.0337 12.8831C76.2544 13.5166 76.3464 14.1892 76.3042 14.86Z" fill="#04394E"/>
<path d="M99.4929 15.5436L100.222 19.1547C100.198 17.544 100.301 15.934 100.528 14.34C100.651 13.2999 100.963 12.2921 101.447 11.3679C101.773 10.7324 102.282 10.2137 102.906 9.88193C103.65 9.58002 104.447 9.4374 105.247 9.46297C106.047 9.48853 106.834 9.68173 107.558 10.0305C108.158 10.3978 108.608 10.9727 108.827 11.6503C109.155 12.4942 109.343 13.3883 109.381 14.2954C109.381 15.2861 109.381 16.4303 109.381 17.7281V27.7438H112.589V17.1485C112.58 15.7468 112.483 14.347 112.298 12.958C112.178 11.8236 111.857 10.7208 111.35 9.70361C110.91 8.81166 110.226 8.06847 109.381 7.56375C108.343 7.01289 107.181 6.75143 106.012 6.80588C104.964 6.78825 103.924 7.00113 102.964 7.43001C102.176 7.77323 101.503 8.34083 101.024 9.06463C100.496 9.92817 100.135 10.8865 99.9596 11.8881C99.7139 13.1179 99.5579 14.3646 99.4929 15.6179V15.5436ZM87.1693 15.6179L87.811 19.229C87.7877 17.6173 87.8999 16.0065 88.1464 14.4143C88.3055 13.3786 88.6255 12.3753 89.0944 11.4422C89.4128 10.8013 89.9238 10.2807 90.5528 9.95623C91.1946 9.66457 91.8921 9.52243 92.5946 9.54015C93.4985 9.48916 94.3995 9.68405 95.2051 10.1048C95.8106 10.4694 96.2664 11.0447 96.4885 11.7246C96.7677 12.5621 96.9106 13.4406 96.9115 14.3251C96.9115 15.3158 96.9115 16.46 96.9115 17.7578V27.7735H100.135V17.1485C100.14 15.7477 100.057 14.348 99.8866 12.958C99.767 11.8236 99.4457 10.7208 98.9387 9.70361C98.4988 8.81166 97.815 8.06847 96.9698 7.56375C95.9321 7.01289 94.7698 6.75143 93.6009 6.80588C92.558 6.7958 91.5247 7.0084 90.5674 7.43001C89.7758 7.77298 89.0975 8.34033 88.6131 9.06463C88.0634 9.92149 87.6866 10.8813 87.5047 11.8881C87.3019 13.0961 87.1897 14.3182 87.1693 15.5436V15.6179ZM84.5879 27.7438H87.811V7.22197H84.5879V27.7438Z" fill="#04394E"/>
<path d="M123.557 4.82969H127.465V0.847168H123.601L123.557 4.82969ZM127.261 26.05V13.3743C127.397 11.6339 126.875 9.9064 125.803 8.54472C125.211 8.00704 124.518 7.59796 123.765 7.34246C123.013 7.08696 122.218 6.99041 121.428 7.05871H116.061V10.2982H122.507H123.294C123.471 10.3186 123.638 10.3909 123.776 10.5063C123.905 10.6369 123.983 10.8114 123.994 10.9966C124.013 11.2985 124.013 11.6013 123.994 11.9031V26.0202L127.261 26.05ZM116.061 27.536H135.02V24.3708H116.061V27.536Z" fill="#04394E"/>
<path d="M138.549 27.5356H141.772V7.01377H138.549V27.5356ZM141.131 15.3355L141.772 18.9613C141.729 17.3318 141.921 15.7046 142.341 14.1318C142.618 13.0483 143.115 12.0359 143.8 11.1598C144.339 10.4887 145.043 9.97578 145.841 9.67374C146.574 9.39817 147.35 9.25729 148.131 9.25766C149.132 9.22356 150.129 9.41643 151.048 9.82234C151.816 10.1776 152.476 10.7371 152.958 11.4421C153.483 12.2244 153.841 13.1104 154.008 14.0426C154.21 15.1752 154.308 16.3243 154.3 17.4753V27.491H157.523V16.9403C157.538 15.5255 157.361 14.1154 156.998 12.7498C156.696 11.5728 156.171 10.4674 155.452 9.49542C154.731 8.58794 153.798 7.87803 152.74 7.42986C151.6 6.90534 150.359 6.64644 149.108 6.67199C148.034 6.59943 146.956 6.76363 145.95 7.15341C144.943 7.54318 144.031 8.14938 143.275 8.93073C141.835 10.7423 141.052 13.0043 141.058 15.3355H141.131Z" fill="#04394E"/>
</g>
<defs>
<clipPath id="clip0_257_5108">
<rect width="266" height="34" fill="white"/>
</clipPath>
</defs>
</svg>
