<svg width="55" height="55" viewBox="0 0 55 55" fill="none" xmlns="http://www.w3.org/2000/svg">
<path d="M9.51172 25.1101C13.9625 27.4975 18.9348 28.7468 23.9854 28.7468H29.9533C35.0851 28.7468 40.1282 27.4089 44.5851 24.8651L40.8744 47.5275H11.7327L9.51172 25.1101Z" fill="url(#paint0_linear_626_6152)"/>
<path d="M9.51172 25.1101C13.9625 27.4975 18.9348 28.7468 23.9854 28.7468H29.9533C35.0851 28.7468 40.1282 27.4089 44.5851 24.8651L40.8744 47.5275H11.7327L9.51172 25.1101Z" fill="url(#paint1_linear_626_6152)"/>
<path d="M9.51172 25.1101C13.9625 27.4975 18.9348 28.7468 23.9854 28.7468H29.9533C35.0851 28.7468 40.1282 27.4089 44.5851 24.8651L40.8744 47.5275H11.7327L9.51172 25.1101Z" fill="black" fill-opacity="0.2"/>
<path d="M4.99425 27.8329C4.86552 25.9937 6.32282 24.4308 8.16654 24.4308C9.60467 24.4308 10.8638 25.396 11.2374 26.7847L15.5511 42.8193C16.0939 44.8372 17.8237 46.3123 19.902 46.5296C21.775 46.7254 23.6013 45.8626 24.6396 44.2915L24.6772 44.2347C25.0169 43.7206 25.2249 43.1307 25.2827 42.5171L25.8233 36.778C25.8935 36.0332 26.9402 35.9323 27.1514 36.65L28.9773 42.8564C29.0934 43.251 29.2677 43.6261 29.4945 43.9692L29.7075 44.2915C30.7458 45.8626 32.5721 46.7254 34.4451 46.5296C36.5234 46.3123 38.2532 44.8372 38.796 42.8193L43.1097 26.7847C43.4833 25.396 44.7424 24.4308 46.1806 24.4308C48.0243 24.4308 49.4816 25.9937 49.3529 27.8329L48.1723 44.7001C47.8734 48.9709 44.3217 52.2827 40.0404 52.2827H14.3067C10.0254 52.2827 6.47368 48.9709 6.17477 44.7001L4.99425 27.8329Z" fill="#F7A6A5"/>
<path d="M4.99425 27.8329C4.86552 25.9937 6.32282 24.4308 8.16654 24.4308C9.60467 24.4308 10.8638 25.396 11.2374 26.7847L15.5511 42.8193C16.0939 44.8372 17.8237 46.3123 19.902 46.5296C21.775 46.7254 23.6013 45.8626 24.6396 44.2915L24.6772 44.2347C25.0169 43.7206 25.2249 43.1307 25.2827 42.5171L25.8233 36.778C25.8935 36.0332 26.9402 35.9323 27.1514 36.65L28.9773 42.8564C29.0934 43.251 29.2677 43.6261 29.4945 43.9692L29.7075 44.2915C30.7458 45.8626 32.5721 46.7254 34.4451 46.5296C36.5234 46.3123 38.2532 44.8372 38.796 42.8193L43.1097 26.7847C43.4833 25.396 44.7424 24.4308 46.1806 24.4308C48.0243 24.4308 49.4816 25.9937 49.3529 27.8329L48.1723 44.7001C47.8734 48.9709 44.3217 52.2827 40.0404 52.2827H14.3067C10.0254 52.2827 6.47368 48.9709 6.17477 44.7001L4.99425 27.8329Z" fill="url(#paint2_linear_626_6152)"/>
<path fill-rule="evenodd" clip-rule="evenodd" d="M26.9226 5.3244C24.453 6.88696 20.6234 7.50872 17.7863 6.80777C15.4811 6.23826 13.0558 6.54451 10.9872 7.86932C6.62177 10.6651 5.4805 16.9492 8.39451 21.9778C8.39516 21.9789 8.39535 21.9802 8.39505 21.9815L9.25697 23.2586C12.1706 27.5755 14.5899 32.2039 16.4699 37.0576L18.2582 41.6748C18.8316 42.9925 20.2255 43.7535 21.6437 43.5233C23.1668 43.276 24.2851 41.9592 24.2827 40.4158L24.2685 31.3094C24.2669 30.2369 25.044 29.3218 26.1024 29.15C27.1609 28.9781 28.1875 29.6003 28.5253 30.6183L31.3929 39.2614C31.8789 40.7263 33.3563 41.6216 34.8795 41.3743C36.2977 41.144 37.3792 39.9811 37.5062 38.5497L37.7419 33.6039C37.9897 28.4047 38.8204 23.2486 40.2186 18.2316L40.6322 16.7475C40.6315 16.7464 40.6312 16.745 40.6315 16.7438C41.8049 11.0516 38.734 5.45131 33.7083 4.1803C31.3268 3.57801 28.9292 4.05481 26.9226 5.3244Z" fill="url(#paint3_linear_626_6152)"/>
<defs>
<linearGradient id="paint0_linear_626_6152" x1="29.2119" y1="25.1101" x2="28.8925" y2="46.5088" gradientUnits="userSpaceOnUse">
<stop stop-color="#C15D5D"/>
<stop offset="0.828884" stop-color="#D7908E"/>
</linearGradient>
<linearGradient id="paint1_linear_626_6152" x1="44.5851" y1="41.6902" x2="7.13525" y2="25.7101" gradientUnits="userSpaceOnUse">
<stop stop-color="#6AD374"/>
<stop offset="1" stop-color="#BCFBC2"/>
</linearGradient>
<linearGradient id="paint2_linear_626_6152" x1="49.3608" y1="45.1087" x2="2.41189" y2="24.4854" gradientUnits="userSpaceOnUse">
<stop stop-color="#6AD374"/>
<stop offset="1" stop-color="#BCFBC2"/>
</linearGradient>
<linearGradient id="paint3_linear_626_6152" x1="9.81101" y1="7.35587" x2="35.8486" y2="39.773" gradientUnits="userSpaceOnUse">
<stop stop-color="#F0F6F9"/>
<stop offset="1" stop-color="#CDDFF2"/>
</linearGradient>
</defs>
</svg>
