<?xml version="1.0" encoding="utf-8"?><svg viewBox="0 0 19 19" xmlns="http://www.w3.org/2000/svg" xmlns:xlink="http://www.w3.org/1999/xlink"><style>:root>svg{display:none}:root>svg:target{display:block}</style><svg viewBox="0 0 19 18" id="arrow" xmlns="http://www.w3.org/2000/svg"><path fill-rule="evenodd" clip-rule="evenodd" d="M14.586 8L8.293 1.707 9.707.293 18.414 9l-8.707 8.707-1.414-1.414L14.586 10H0V8h14.586z"/></svg><svg viewBox="0 0 14 16" id="location" xmlns="http://www.w3.org/2000/svg"><path d="M13.345 6.222a6.374 6.374 0 00-9.87-4.702 6.42 6.42 0 00-2.82 4.702A6.345 6.345 0 002.5 11.345l3.975 3.982a.75.75 0 001.065 0l3.96-3.982a6.345 6.345 0 001.845-5.123zm-2.895 4.065L7 13.738l-3.45-3.45a4.868 4.868 0 01-1.402-3.915A4.928 4.928 0 014.315 2.75a4.852 4.852 0 015.37 0 4.928 4.928 0 012.167 3.607 4.868 4.868 0 01-1.402 3.93zM7 3.5a3.375 3.375 0 103.375 3.375A3.382 3.382 0 007 3.5zm0 5.25A1.875 1.875 0 117 5a1.875 1.875 0 010 3.75z"/></svg><svg viewBox="0 0 16 16" id="phone" xmlns="http://www.w3.org/2000/svg"><path d="M13.559 8.75c-.165 0-.338-.052-.503-.09a7.401 7.401 0 01-.982-.292 1.5 1.5 0 00-1.86.75l-.165.345a9.879 9.879 0 01-2.003-1.5 9.878 9.878 0 01-1.5-2.003l.345-.157a1.5 1.5 0 00.75-1.86 7.852 7.852 0 01-.292-.99 5.886 5.886 0 01-.09-.503A2.25 2.25 0 005.009.583H2.75a2.25 2.25 0 00-1.68.75 2.25 2.25 0 00-.547 1.8 14.302 14.302 0 004.057 8.25 14.303 14.303 0 008.25 4.057c.098.008.196.008.293 0a2.25 2.25 0 002.054-1.33c.13-.29.196-.603.196-.92v-2.25a2.25 2.25 0 00-1.815-2.19zm.367 4.5a.748.748 0 01-.247.555.75.75 0 01-.615.188 12.87 12.87 0 01-7.403-3.63 12.87 12.87 0 01-3.66-7.425.75.75 0 01.443-.8.75.75 0 01.307-.063h2.25a.75.75 0 01.75.585c0 .203.068.413.113.615.087.393.202.779.345 1.155l-1.05.495a.75.75 0 00-.39.42.75.75 0 000 .57 10.868 10.868 0 005.25 5.25.75.75 0 00.57 0 .75.75 0 00.42-.39l.472-1.05a9.31 9.31 0 001.793.457.75.75 0 01.585.75l.067 2.318zM9.501.5h-.525A.753.753 0 009.104 2H9.5a4.5 4.5 0 014.5 4.5v.398a.75.75 0 00.683.81h.06a.75.75 0 00.75-.683V6.5A6 6 0 009.5.5zm1.5 6a.75.75 0 001.5 0 3 3 0 00-3-3 .75.75 0 000 1.5 1.5 1.5 0 011.5 1.5z"/></svg><svg viewBox="0 0 17 19" id="viber" xmlns="http://www.w3.org/2000/svg"><path d="M13.14.461a25.644 25.644 0 00-9.34 0C2.44.747.726 2.348.43 3.605a17.503 17.503 0 000 7.432c.355 1.258 2.07 2.859 3.37 3.145.06 0 .118.057.118.114v3.602c0 .171.237.285.355.114l1.773-1.772s1.419-1.43 1.655-1.658c0 0 .06-.057.119-.057 1.773.057 3.605-.115 5.379-.4 1.36-.286 3.074-1.887 3.37-3.145a17.504 17.504 0 000-7.432c-.355-1.2-2.07-2.801-3.43-3.087zm.059 10.748c-.296.572-.65 1.029-1.242 1.315l-.532.171a7.59 7.59 0 01-.59-.171c-1.892-.743-3.666-1.772-5.084-3.259A13.727 13.727 0 013.8 6.407c-.237-.515-.474-.972-.651-1.487-.177-.457.118-.914.414-1.257.295-.343.65-.572 1.064-.744.295-.171.59-.057.827.172.473.572.946 1.143 1.3 1.772.237.4.178.858-.236 1.143-.118.058-.177.115-.295.23-.06.056-.178.113-.237.228a.54.54 0 00-.059.514c.473 1.315 1.36 2.344 2.72 2.916.236.114.413.171.709.171.413-.057.59-.514.886-.743.296-.228.65-.228 1.005-.057.296.172.591.4.946.629.295.229.591.4.887.629.177.114.236.4.118.686zM10.716 6.92c-.118 0-.059 0 0 0-.236 0-.295-.114-.354-.286 0-.114 0-.286-.06-.4a1.083 1.083 0 00-.413-.629l-.355-.171c-.177-.057-.296-.057-.473-.057-.177-.058-.236-.172-.236-.343 0-.115.177-.23.295-.23.946.058 1.655.573 1.774 1.659v.228c0 .115-.06.23-.178.23zm-.591-2.515c-.296-.115-.591-.229-.946-.286-.118 0-.295-.057-.414-.057-.177 0-.295-.115-.236-.286 0-.172.118-.286.296-.229.59.057 1.123.172 1.655.4 1.064.515 1.655 1.372 1.832 2.516V7.207c-.059.229-.473.286-.532 0 0-.057-.059-.171-.059-.229 0-.514-.118-1.029-.355-1.486a3.145 3.145 0 00-1.241-1.086zm3.192 3.43c-.177 0-.296-.172-.296-.343 0-.343-.059-.686-.118-1.03-.236-1.829-1.773-3.315-3.606-3.6-.295-.058-.59-.058-.827-.115-.177 0-.414 0-.473-.229-.06-.171.118-.343.296-.343h.118c2.423.057.118 0 0 0 2.482.057 4.551 1.658 4.965 4.06.06.4.118.8.118 1.257.119.171 0 .343-.177.343z"/></svg><svg viewBox="0 0 18 11" id="vk" xmlns="http://www.w3.org/2000/svg"><path d="M10.046 10.073C4.144 10.073.777 6.47.636.476h2.956c.097 4.4 2.277 6.263 4.003 6.647V.476h2.784V4.27c1.705-.163 3.496-1.892 4.1-3.794h2.784C16.8 2.82 14.858 4.549 13.477 5.26c1.38.576 3.593 2.084 4.434 4.813h-3.064a5.184 5.184 0 00-4.467-3.43v3.43h-.335z"/></svg><svg viewBox="0 0 17 17" id="whatsapp" xmlns="http://www.w3.org/2000/svg"><path d="M14.489 2.502a8.41 8.41 0 00-5.96-2.47C3.867.032.091 3.796.091 8.442c0 1.47.413 2.94 1.12 4.174l-1.18 4.352 4.485-1.176c1.24.647 2.597 1 4.013 1 4.662 0 8.438-3.764 8.438-8.41-.059-2.175-.885-4.292-2.478-5.88zM12.6 11.44c-.177.47-1.004.941-1.417 1a3.308 3.308 0 01-1.298-.059c-.295-.118-.708-.235-1.18-.47-2.124-.882-3.481-3-3.6-3.176-.118-.117-.885-1.117-.885-2.176 0-1.058.531-1.528.708-1.764.177-.235.414-.235.59-.235h.414c.118 0 .295-.059.472.353s.59 1.47.649 1.529a.374.374 0 010 .353 1.23 1.23 0 01-.236.353c-.118.117-.236.294-.295.352-.118.118-.236.236-.118.412.118.235.53.882 1.18 1.47.826.706 1.475.94 1.711 1.059.236.117.354.058.472-.06.118-.117.531-.587.65-.823.117-.235.294-.176.471-.117.177.059 1.24.588 1.417.705.236.118.354.177.413.236.059.176.059.588-.118 1.058z"/></svg></svg>