<svg width="27" height="27" viewBox="0 0 27 27" fill="none" xmlns="http://www.w3.org/2000/svg">
<path fill-rule="evenodd" clip-rule="evenodd" d="M5.9354 0.527671C10.9227 -0.0297315 16.0784 -0.0297315 21.0657 0.527671C23.8489 0.838732 26.0942 3.03152 26.421 5.82569C27.0174 10.9243 27.0174 16.0751 26.421 21.1737C26.0942 23.9679 23.8489 26.1607 21.0657 26.4718C16.0784 27.0292 10.9227 27.0292 5.93539 26.4718C3.15222 26.1607 0.906865 23.9679 0.580062 21.1737C-0.0162706 16.0751 -0.0162705 10.9243 0.580062 5.82569C0.906865 3.03152 3.15222 0.838732 5.9354 0.527671ZM7.76379 7.76292C8.23975 7.28696 9.01141 7.28696 9.48737 7.76292L13.5006 11.7761L17.5138 7.76293C17.9898 7.28698 18.7614 7.28698 19.2374 7.76293C19.7133 8.23888 19.7133 9.01055 19.2374 9.4865L15.2242 13.4997L19.2374 17.5129C19.7133 17.9889 19.7133 18.7605 19.2374 19.2365C18.7614 19.7124 17.9897 19.7124 17.5138 19.2365L13.5006 15.2233L9.48738 19.2365C9.01143 19.7125 8.23976 19.7125 7.76381 19.2365C7.28786 18.7605 7.28785 17.9889 7.76381 17.5129L11.777 13.4997L7.76379 9.48649C7.28784 9.01054 7.28784 8.23887 7.76379 7.76292Z" fill="#DEDEDE"/>
</svg>
