<svg width="220" height="70" viewBox="0 0 220 70" fill="none" xmlns="http://www.w3.org/2000/svg">
<g clip-path="url(#clip0_257_5177)">
<path d="M102.624 32.9247H98.6547V28.8438H83.4183V32.9247H79.4094V25.0033H82.2956L89.7539 8.84032H92.2798L99.7381 25.0033H102.624V32.9247ZM91.0365 14.8023L86.425 25.0033H95.6873L91.0365 14.8023ZM113.465 8.5619C116.327 8.5619 118.758 9.56841 120.763 11.5827C122.768 13.5971 123.771 16.0166 123.771 18.844C123.771 21.6714 122.768 24.0857 120.763 26.0857C118.758 28.0856 116.325 29.0856 113.465 29.0856C110.605 29.0856 108.179 28.0856 106.188 26.0857C104.196 24.0857 103.201 21.6714 103.201 18.844C103.201 15.9905 104.203 13.5631 106.207 11.5631C108.213 9.56318 110.632 8.5632 113.465 8.5632V8.5619ZM117.896 14.2232C116.653 13.0102 115.176 12.4036 113.465 12.4036C111.754 12.4036 110.284 13.0102 109.056 14.2232C107.825 15.4362 107.211 16.9774 107.211 18.844C107.211 20.7106 107.825 22.2452 109.056 23.4452C110.284 24.6452 111.756 25.2452 113.465 25.2452C115.176 25.2452 116.653 24.6387 117.896 23.4256C119.138 22.2113 119.76 20.6858 119.76 18.844C119.76 16.9774 119.138 15.4362 117.896 14.2232ZM141.548 0.840505H145.518C145.518 2.60125 144.964 3.9071 143.854 4.76068C142.745 5.61425 140.907 6.04169 138.341 6.04169H137.299C134.973 6.04169 133.156 6.55541 131.846 7.58153C130.536 8.60895 129.881 10.1226 129.881 12.1226V13.2428C130.495 12.0429 131.432 11.0756 132.688 10.3422C133.945 9.60763 135.335 9.24162 136.858 9.24162C139.665 9.24162 141.964 10.1553 143.755 11.9827C145.546 13.8088 146.442 16.0964 146.442 18.8427C146.442 21.7773 145.487 24.2308 143.575 26.2046C141.664 28.1784 139.185 29.1653 136.136 29.1653C133.197 29.1653 130.751 28.1784 128.799 26.2046C126.848 24.2308 125.872 21.6701 125.872 18.5225V13.482C125.872 9.98801 126.894 7.30833 128.939 5.4404C130.984 3.57378 133.865 2.63916 137.58 2.63916C139.131 2.63916 140.179 2.51236 140.727 2.25877C141.276 2.00518 141.55 1.53199 141.55 0.837891L141.548 0.840505ZM136.176 12.9226C134.465 12.9226 132.988 13.516 131.745 14.7029C130.502 15.8898 129.881 17.363 129.881 19.1237C129.881 20.9106 130.489 22.3903 131.704 23.5642C132.922 24.738 134.411 25.3249 136.176 25.3249C137.913 25.3249 139.389 24.738 140.607 23.5642C141.824 22.3903 142.43 20.9106 142.43 19.1237C142.43 17.363 141.808 15.8898 140.566 14.7029C139.323 13.516 137.859 12.9226 136.174 12.9226H136.176ZM159.608 8.60111C162.442 8.60111 164.801 9.59455 166.685 11.5814C168.569 13.5683 169.512 15.9892 169.512 18.8427C169.512 21.7237 168.57 24.1576 166.685 26.1445C164.8 28.1314 162.442 29.1248 159.608 29.1248C158.298 29.1248 157.082 28.8255 155.96 28.2242C154.837 27.6242 153.942 26.8164 153.273 25.8033V36.2057H149.264V8.84032H151.99L152.231 12.5213C152.98 11.3213 154.009 10.3671 155.318 9.65991C156.628 8.95404 158.058 8.5998 159.608 8.5998V8.60111ZM163.698 14.2428C162.468 13.0428 160.998 12.4429 159.287 12.4429C157.576 12.4429 156.1 13.0494 154.856 14.2624C153.613 15.4755 152.992 17.0022 152.992 18.8427C152.992 20.6832 153.613 22.2099 154.856 23.4243C156.1 24.6387 157.576 25.2439 159.287 25.2439C160.998 25.2439 162.468 24.6439 163.698 23.4439C164.928 22.2439 165.543 20.7093 165.543 18.8427C165.543 16.9761 164.928 15.4428 163.698 14.2428ZM176.825 14.9631H182.599C184.176 14.9631 185.526 15.1696 186.648 15.5827C187.771 15.997 188.62 16.563 189.195 17.2833C189.77 18.0035 190.178 18.7368 190.419 19.4845C190.66 20.2309 190.779 21.0322 190.779 21.8845C190.779 22.738 190.659 23.5446 190.419 24.304C190.178 25.0648 189.77 25.8046 189.195 26.5249C188.62 27.2451 187.771 27.8124 186.648 28.2255C185.526 28.6386 184.176 28.8451 182.599 28.8451H172.815V8.84163H176.824V14.9631H176.825ZM196.994 28.8451H192.984V8.84163H196.994V28.8451ZM176.825 25.1236H183.04C185.527 25.1236 186.77 24.0439 186.77 21.8832C186.77 19.7499 185.527 18.6832 183.04 18.6832H176.825V25.1236ZM210.442 8.56059C212.58 8.56059 214.412 9.05339 215.936 10.0403C217.461 11.0272 218.596 12.4141 219.344 14.201C219.718 15.0284 219.933 15.9944 219.986 17.1016C220.04 18.2087 219.946 19.1355 219.706 19.8832H204.429C204.429 21.5904 205.011 22.9433 206.173 23.9432C207.335 24.9432 208.839 25.4439 210.683 25.4439C213.009 25.4439 215.161 24.8569 217.138 23.6831L219.304 26.0033C216.604 28.0569 213.731 29.083 210.683 29.083C207.61 29.083 205.11 28.1235 203.186 26.2033C201.261 24.2831 200.298 21.8296 200.298 18.8414C200.298 15.9343 201.227 13.4938 203.086 11.52C204.944 9.54619 207.396 8.55928 210.444 8.55928L210.442 8.56059ZM210.483 12.201C208.826 12.201 207.449 12.7017 206.354 13.7016C205.257 14.7016 204.669 15.9081 204.589 17.3225H216.097C216.097 16.6297 215.936 15.9748 215.616 15.3617C215.189 14.4023 214.527 13.635 213.631 13.0611C212.735 12.4873 211.687 12.201 210.483 12.201Z" fill="#00ADEF"/>
<path d="M92.1592 41.8174C94.9929 41.8174 97.3511 42.8108 99.2363 44.7977C101.12 46.7846 102.064 49.2054 102.064 52.059C102.064 54.9387 101.122 57.3739 99.2363 59.3608C97.3511 61.3477 94.9916 62.3411 92.1592 62.3411C90.8491 62.3411 89.6333 62.0418 88.5106 61.4405C87.3878 60.8405 86.493 60.034 85.8236 59.0196V69.422H81.8147V42.0566H84.541L84.7821 45.7376C85.5314 44.5376 86.5599 43.5834 87.8686 42.8775C89.1787 42.1703 90.608 41.8174 92.1592 41.8174ZM96.2493 47.4591C95.0191 46.2591 93.5492 45.6591 91.8382 45.6591C90.1272 45.6591 88.6508 46.2656 87.4075 47.4787C86.1642 48.6917 85.5432 50.2185 85.5432 52.059C85.5432 53.8995 86.1642 55.4262 87.4075 56.6406C88.6495 57.8536 90.1272 58.4601 91.8382 58.4601C93.5492 58.4601 95.0191 57.8601 96.2493 56.6602C97.4782 55.4602 98.0939 53.9269 98.0939 52.059C98.0939 50.1924 97.4782 48.6591 96.2493 47.4578V47.4591ZM124.533 42.0579V59.5412C124.533 62.5542 123.658 65.0012 121.907 66.8822C120.156 68.7632 117.744 69.703 114.669 69.703C111.301 69.703 108.387 68.6769 105.928 66.6233L108.213 64.1829C110.297 65.4364 112.45 66.0639 114.668 66.0639C116.513 66.0639 117.95 65.5698 118.978 64.5842C120.007 63.5973 120.521 62.1973 120.521 60.383V58.5425C119.853 59.6627 118.938 60.4967 117.775 61.0431C116.612 61.5895 115.39 61.864 114.107 61.864C111.327 61.864 109.175 61.0104 107.651 59.3033C106.127 57.5961 105.366 55.2484 105.366 52.2629V42.0605H109.376V52.0224C109.376 56.0223 111.154 58.0235 114.71 58.0235C116.527 58.0235 117.958 57.4432 119 56.2824C120.043 55.1217 120.565 53.4485 120.565 51.2616V42.0592H124.534L124.533 42.0579ZM143.274 62.0614L139.906 56.8602C139.078 55.6066 138.382 54.7661 137.821 54.34C137.259 53.9125 136.418 53.7008 135.295 53.7008H133.05V62.0614H129.041V42.0579H133.05V49.8198H134.974C136.125 49.8198 136.974 49.6067 137.521 49.1793C138.069 48.7519 138.758 47.8996 139.586 46.6199L142.593 42.0579H147.043L142.953 48.2996C141.643 50.2198 140.561 51.3531 139.705 51.6995C140.748 52.0198 141.924 53.1923 143.233 55.2197L147.724 62.0601H143.272L143.274 62.0614ZM168.15 62.0614H164.14V48.6185L152.351 62.0614H149.826V42.0579H153.836V55.5007L165.624 42.0579H168.15V62.0614Z" fill="#00ADEF"/>
<path d="M46.9059 6.37109H14.7575C6.6075 6.37109 0.000610352 12.9632 0.000610352 21.0949V53.1713C0.000610352 61.3031 6.6075 67.8952 14.7575 67.8952H46.9059C55.0559 67.8952 61.6628 61.3031 61.6628 53.1713V21.0949C61.6628 12.9632 55.0559 6.37109 46.9059 6.37109Z" fill="url(#paint0_linear_257_5177)"/>
<path fill-rule="evenodd" clip-rule="evenodd" d="M19.1791 53.4578C19.7896 55.1035 20.5927 56.3048 21.9224 56.3963C26.5038 56.7087 25.7806 44.8488 30.459 44.7508C35.1373 44.8488 34.4142 56.7087 38.9955 56.3963C40.3253 56.3048 41.1284 55.1048 41.7389 53.4578C43.0739 49.8592 44.1495 46.2553 45.5735 42.5508C48.6902 34.4465 51.8109 24.2846 44.7364 19.371C42.3821 17.7357 39.2497 17.2952 35.9758 18.7266C33.6255 19.754 32.4412 21.5971 30.459 21.7239C28.4768 21.5971 27.2912 19.754 24.9409 18.7266C21.6683 17.2952 18.5358 17.7357 16.1803 19.371C9.10576 24.2846 12.2264 34.4465 15.3431 42.5508C16.7672 46.2553 17.8428 49.8592 19.1778 53.4578H19.1791Z" fill="white"/>
<path d="M58.1177 21.7889C64.1485 21.7889 69.0374 16.9109 69.0374 10.8937C69.0374 4.87647 64.1485 -0.00146484 58.1177 -0.00146484C52.087 -0.00146484 47.1981 4.87647 47.1981 10.8937C47.1981 16.9109 52.087 21.7889 58.1177 21.7889Z" fill="#FF829D"/>
<path d="M51.9721 8.78941C51.9721 9.85344 52.4568 11.039 53.4263 12.3462C54.363 13.6089 55.8539 15.1226 57.8977 16.8873C58.0247 16.9971 58.2108 16.9971 58.3378 16.8873C60.3829 15.1226 61.8738 13.6089 62.8092 12.3462C63.7787 11.039 64.2634 9.85344 64.2634 8.78941C64.2634 8.25086 64.1324 7.75806 63.8691 7.30971C63.6057 6.86135 63.2494 6.5058 62.8 6.24306C62.3507 5.98033 61.862 5.84961 61.3353 5.84961C60.1432 5.84961 59.1684 6.47966 58.4073 7.73976C58.3444 7.84433 58.2396 7.90316 58.1177 7.90316C57.9959 7.90316 57.8924 7.84433 57.8295 7.73976C57.5072 7.20252 57.1404 6.77769 56.7291 6.46528C56.1893 6.05483 55.5788 5.84961 54.8975 5.84961C54.3709 5.84961 53.8835 5.98163 53.4329 6.24306C52.9835 6.5058 52.6272 6.86135 52.3638 7.30971C52.1005 7.75806 51.9695 8.25217 51.9695 8.78941H51.9721Z" fill="white"/>
</g>
<defs>
<linearGradient id="paint0_linear_257_5177" x1="45.4582" y1="22.2008" x2="15.963" y2="56.5634" gradientUnits="userSpaceOnUse">
<stop stop-color="#00ADEF"/>
<stop offset="1" stop-color="#6AD474"/>
</linearGradient>
<clipPath id="clip0_257_5177">
<rect width="220" height="69.703" fill="white"/>
</clipPath>
</defs>
</svg>
